# Blender v2.80 (sub 75) OBJ File: ''
# www.blender.org
mtllib Obsticle2.mtl
o Cube
v 0.500000 5.000000 -0.500000
v 1.000000 0.996894 -0.950000
v 0.950000 0.996894 -1.000000
v 0.964377 1.284981 -0.964377
v 0.950000 -1.000000 -1.000000
v 1.000000 -1.000000 -0.950000
v 0.950000 0.993845 1.000000
v 1.000000 0.950000 0.950000
v 0.982741 1.069036 0.950000
v 1.000000 -1.000000 0.950000
v 0.950000 -1.000000 1.000000
v -0.950000 0.950000 -1.000000
v -1.000000 0.988197 -0.950000
v -0.950000 1.059474 -0.970263
v -1.000000 -1.000000 -0.950000
v -0.950000 -1.000000 -1.000000
v -1.000000 0.993845 0.950000
v -0.950000 0.988197 1.000000
v -0.973651 1.150288 0.975603
v -0.950000 -1.000000 1.000000
v -1.000000 -1.000000 0.950000
v 0.030902 2.950000 1.000000
v 0.000000 3.000000 0.943096
v -0.062556 2.949423 0.962732
v 1.000000 3.000000 -0.039551
v 0.979605 3.000000 0.020395
v -0.945793 3.000000 0.000000
v -0.962732 2.952860 -0.060838
v -1.000000 2.950000 0.030902
v -0.018362 3.000000 -0.981638
v 0.050746 3.000000 -1.000000
v -0.455279 1.977639 1.000000
v -0.543099 2.021549 0.986653
v 1.000000 0.950000 0.472488
v 0.982536 1.069857 0.500000
v -1.000000 1.977639 -0.455279
v -0.962732 2.074536 -0.500000
v 0.449254 3.000000 -1.000000
v 0.535622 3.000000 -0.964378
v 0.450000 3.000000 0.943362
v 0.460961 2.950000 1.000000
v 0.512127 2.951493 0.950000
v 0.964387 3.000000 -0.535613
v 1.000000 3.000000 -0.449254
v -0.945955 3.000000 0.450000
v -1.000000 2.950000 0.460961
v -0.974397 2.948794 0.525603
v -0.461723 0.950000 -1.000000
v -0.500000 1.065149 -0.983713
v 0.050000 3.000000 0.500000
v -0.035355 3.000000 0.464645
v -0.050000 3.000000 0.500000
v 0.000000 3.000000 0.550000
v -0.464645 3.000000 0.035355
v -0.500000 3.000000 -0.050000
v -0.550000 3.000000 0.000000
v -0.500000 3.000000 0.050000
v -0.470537 2.952860 -0.541248
v -0.500000 3.000000 -0.445793
v 0.529953 2.953938 0.481563
v 0.450000 3.000000 0.500000
v -0.500000 2.949286 0.525357
v -0.492565 3.000000 0.450000
v 0.964397 3.984603 -0.535603
v 1.012629 4.009423 -0.452690
v 1.000000 4.000000 -0.038248
v 0.977960 4.044080 0.022040
v 0.000000 6.000000 -0.429289
v 0.012099 5.952231 -0.535669
v 0.527796 5.842970 0.022922
v 0.500000 5.935211 -0.032394
v 0.429289 6.000000 0.000000
v 0.462732 5.952859 0.060838
v -0.019016 4.950000 -0.980985
v 0.000000 5.049939 -0.975030
v 0.050717 4.950000 -1.000000
v 0.535621 4.842155 -0.964379
v 0.449283 4.950000 -1.000000
v 0.500000 5.000000 -0.944440
v -0.500000 4.996286 -0.445955
v -0.474722 5.050555 -0.500000
v -0.464645 4.950000 -0.535355
v 0.462732 5.149071 0.462732
v 0.450000 4.988196 0.500000
v 0.527932 4.944135 0.472068
v -0.464645 5.950000 0.035355
v -0.429289 6.000000 0.000000
v -0.474261 5.952859 -0.049309
v -0.500000 5.788197 -0.050000
v -0.035355 5.950000 0.464645
v 0.050000 5.788197 0.500000
v 0.060838 5.952859 0.462732
v 0.000000 6.000000 0.429289
vt 0.377183 0.187500
vt 0.435925 0.185195
vt 0.435984 0.243750
vt 0.377157 0.243750
vt 0.562500 0.002036
vt 0.618897 0.003276
vt 0.620342 0.062500
vt 0.558282 0.058950
vt 0.375000 0.256250
vt 0.619238 0.256250
vt 0.624345 0.317380
vt 0.624286 0.371137
vt 0.622954 0.431910
vt 0.619371 0.493750
vt 0.375000 0.493750
vt 0.375000 0.756250
vt 0.381250 0.750000
vt 0.618750 0.750000
vt 0.625000 0.756250
vt 0.625000 0.993750
vt 0.618750 1.000000
vt 0.381250 1.000000
vt 0.375000 0.993750
vt 0.410623 0.517811
vt 0.839378 0.678595
vt 0.410613 0.571403
vt 0.512500 0.206250
vt 0.506250 0.187500
vt 0.549071 0.168750
vt 0.610774 0.353661
vt 0.375000 0.620056
vt 0.375000 0.568843
vt 0.375000 0.568414
vt 0.375000 0.620219
vt 0.625000 0.499756
vt 0.625000 0.445203
vt 0.625000 0.556099
vt 0.434476 0.208671
vt 0.377549 0.607154
vt 0.377755 0.605715
vt 0.434008 0.211941
vt 0.375000 0.506250
vt 0.619238 0.506250
vt 0.624345 0.567380
vt 0.624286 0.621137
vt 0.622954 0.681910
vt 0.619371 0.743750
vt 0.375000 0.743750
vt 0.863524 0.604343
vt 0.580914 0.094172
vt 0.061981 0.025587
vt 0.493750 0.187500
vt 0.443750 0.187500
vt 0.408135 0.174144
vt 0.568750 0.175000
vt 0.562500 0.118750
vt 0.562500 0.069276
vt 0.618224 0.570793
vt 0.493750 0.187500
vt 0.500000 0.193750
vt 0.500000 0.242887
vt 0.443750 0.242920
vt 0.875000 0.681157
vt 0.875000 0.631343
vt 0.875000 0.631340
vt 0.875000 0.681160
vt 0.125000 0.506250
vt 0.369478 0.506251
vt 0.362191 0.684061
vt 0.368651 0.743750
vt 0.125000 0.743750
vt 0.562500 0.131250
vt 0.568750 0.125000
vt 0.618224 0.125000
vt 0.618244 0.181250
vt 0.561571 0.181250
vt 0.839379 0.678595
vt 0.410603 0.571401
vt 0.584597 0.102275
vt 0.584597 0.102275
vt 0.863115 0.603608
vt 0.504419 0.183081
vt 0.008625 0.002834
vt 0.009084 0.002375
vt 0.558081 0.129419
vt 0.565670 0.200179
vt 0.625000 0.200302
vt 0.628976 0.431855
vt 0.621080 0.424957
vt 0.620342 0.364186
vt 0.620341 0.556557
vt 0.559472 0.010204
vt 0.538790 0.066976
vt 0.559340 0.062500
vt 0.052255 0.006164
vt 0.437500 0.062500
vt 0.333759 0.003363
vt 0.826385 0.618050
vt 0.410108 0.112618
vt 0.461101 0.061624
vt 0.034479 0.005295
vt 0.031812 0.007963
vt 0.525362 0.102785
vt 0.856273 0.596909
vt 0.499815 0.059368
vt 0.437500 0.120951
vt 0.434025 0.155662
vt 0.433756 0.203633
vt 0.375222 0.069014
vt 0.375000 0.120219
vt 0.076760 0.010808
vt 0.518434 0.059463
vt 0.506250 0.187500
vt 0.437500 0.006945
vt 0.500000 0.003121
vt 0.499670 0.059224
vt 0.404891 0.168866
vt 0.404891 0.118629
vt 0.053233 0.018156
vt 0.625000 0.506250
vt 0.868651 0.506250
vt 0.861022 0.567285
vt 0.869478 0.743749
vt 0.625000 0.743750
vn 0.9710 0.2381 0.0195
vn -0.3206 0.2858 -0.9031
vn 0.0000 0.0000 1.0000
vn 0.0000 -1.0000 0.0000
vn 0.6963 0.1741 -0.6963
vn 0.0000 1.0000 -0.0000
vn 0.9999 -0.0063 0.0153
vn -0.4583 0.2156 0.8623
vn 0.7128 0.0027 0.7013
vn -1.0000 -0.0000 0.0000
vn -0.6963 0.1741 -0.6963
vn 0.0000 0.0000 -1.0000
vn 1.0000 -0.0000 0.0000
vn 0.7071 0.0000 -0.7071
vn -0.7025 0.0021 -0.7117
vn -0.7071 -0.0000 0.7071
vn 0.0000 0.4452 0.8954
vn -0.6600 0.3588 0.6600
vn -0.6577 0.3369 -0.6738
vn -0.6664 0.3334 -0.6669
vn 0.8881 0.4596 0.0000
vn -0.6666 0.3335 -0.6666
vn 0.6842 0.3261 -0.6523
vn 0.8729 0.2182 0.4364
vn 0.6963 0.1741 0.6963
vn 0.9000 0.3071 -0.3094
vn 0.6015 0.5549 -0.5747
vn 0.6667 0.3333 0.6667
usemtl Material
s off
f 35/1/1 60/2/1 42/3/1 9/4/1
f 49/5/2 14/6/2 37/7/2 58/8/2
f 11/9/3 7/10/3 41/11/3 22/12/3 32/13/3 18/14/3 20/15/3
f 15/16/4 16/17/4 5/18/4 6/19/4 10/20/4 11/21/4 20/22/4 21/23/4
f 4/24/5 39/25/5 43/26/5
f 53/27/6 52/28/6 63/29/6 23/30/6
f 25/31/7 44/32/7 65/33/7 66/34/7
f 19/35/8 33/36/8 47/37/8
f 60/38/9 26/39/9 67/40/9 85/41/9
f 21/42/10 17/43/10 46/44/10 29/45/10 36/46/10 13/47/10 15/48/10
f 30/49/11 49/5/11 58/50/11
f 91/51/3 50/52/3 61/53/3 84/54/3
f 56/55/6 55/56/6 59/57/6 27/58/6
f 61/53/6 50/59/6 53/60/6 23/61/6 40/62/6
f 38/63/12 31/64/12 76/65/12 78/66/12
f 6/67/13 2/68/13 44/32/13 25/31/13 34/69/13 8/70/13 10/71/13
f 57/72/6 56/73/6 27/74/6 45/75/6 63/76/6
f 43/26/14 39/25/14 77/77/14 64/78/14
f 30/49/15 58/79/15 82/80/15 74/81/15
f 51/82/16 90/83/16 86/84/16 54/85/16
f 62/86/17 47/87/17 33/88/17
f 33/89/18 24/90/18 62/86/18
f 37/7/19 28/91/19 58/92/19
f 69/93/20 81/94/20 88/95/20
f 1/96/21 65/97/21 79/98/21
f 72/99/6 68/100/6 87/101/6 93/102/6
f 69/103/22 75/104/22 81/94/22
f 1/96/23 69/105/23 71/106/23
f 67/40/24 70/107/24 85/41/24
f 35/1/25 26/39/25 60/108/25
f 65/109/26 1/96/26 71/106/26 66/110/26
f 55/56/10 89/111/10 80/112/10 59/57/10
f 54/85/6 57/72/6 63/76/6 52/113/6 51/82/6
f 79/114/27 75/115/27 69/116/27 1/96/27
f 83/117/28 73/118/28 92/119/28
f 16/120/12 12/121/12 48/122/12 31/64/12 38/63/12 3/123/12 5/124/12
