# Blender v2.80 (sub 75) OBJ File: ''
# www.blender.org
mtllib Obsticle2mesh.mtl
o Cube
v 1.000000 1.000000 -1.000000
v 1.000000 -1.000000 -1.000000
v 1.000000 1.000000 1.000000
v 1.000000 -1.000000 1.000000
v -1.000000 1.000000 -1.000000
v -1.000000 -1.000000 -1.000000
v -1.000000 1.000000 1.000000
v -1.000000 -1.000000 1.000000
v 0.000000 3.000000 1.000000
v 1.000000 3.000000 0.000000
v -1.000000 3.000000 0.000000
v 0.000000 3.000000 -1.000000
v -0.500000 2.000000 1.000000
v 1.000000 1.000000 0.500000
v -1.000000 2.000000 -0.500000
v 0.500000 3.000000 -1.000000
v 0.500000 3.000000 1.000000
v 1.000000 3.000000 -0.500000
v -1.000000 3.000000 0.500000
v -0.500000 1.000000 -1.000000
v 0.000000 3.000000 0.500000
v -0.500000 3.000000 0.000000
v -0.500000 3.000000 -0.500000
v 0.500000 3.000000 0.500000
v -0.500000 3.000000 0.500000
v 1.000000 4.000000 -0.500000
v 1.000000 4.000000 0.000000
v 0.000000 6.000000 -0.500000
v 0.500000 6.000000 0.000000
v 0.000000 5.000000 -1.000000
v 0.500000 5.000000 -1.000000
v -0.500000 5.000000 -0.500000
v 0.500000 5.000000 -0.500000
v 0.500000 5.000000 0.500000
v -0.500000 6.000000 0.000000
v 0.000000 6.000000 0.500000
vt 0.375000 0.250000
vt 0.625000 0.250000
vt 0.625000 0.312500
vt 0.625000 0.375000
vt 0.625000 0.437500
vt 0.625000 0.500000
vt 0.375000 0.500000
vt 0.625000 0.562500
vt 0.625000 0.625000
vt 0.625000 0.687500
vt 0.625000 0.750000
vt 0.375000 0.750000
vt 0.625000 0.750000
vt 0.625000 1.000000
vt 0.375000 1.000000
vt 0.125000 0.500000
vt 0.375000 0.500000
vt 0.375000 0.562500
vt 0.375000 0.625000
vt 0.375000 0.687500
vt 0.375000 0.750000
vt 0.125000 0.750000
vt 0.625000 0.500000
vt 0.875000 0.500000
vt 0.875000 0.562500
vt 0.875000 0.625000
vt 0.875000 0.687500
vt 0.875000 0.750000
vt 0.437500 0.187500
vt 0.500000 0.187500
vt 0.500000 0.250000
vt 0.437500 0.250000
vt 0.562500 0.187500
vt 0.562500 0.000000
vt 0.625000 0.000000
vt 0.625000 0.062500
vt 0.562500 0.062500
vt 0.375000 0.562500
vt 0.375000 0.625000
vt 0.375000 0.187500
vt 0.375000 0.250000
vt 0.562500 0.125000
vt 0.625000 0.125000
vt 0.625000 0.187500
vt 0.875000 0.625000
vt 0.875000 0.687500
vt 0.562500 0.062500
vt 0.437500 0.062500
vt 0.500000 0.062500
vt 0.437500 0.125000
vt 0.375000 0.062500
vt 0.375000 0.125000
vt 0.437500 0.000000
vt 0.500000 0.000000
vt 0.437500 0.187500
vt 0.000000 0.000000
vt 0.000000 0.000000
vn 0.0000 0.0000 1.0000
vn -1.0000 0.0000 0.0000
vn 0.0000 -1.0000 0.0000
vn 1.0000 0.0000 0.0000
vn 0.0000 0.0000 -1.0000
vn 0.0000 1.0000 0.0000
vn -0.6667 0.3333 0.6667
vn -0.3015 0.3015 -0.9045
vn 0.9701 0.2425 0.0000
vn -0.6667 0.3333 -0.6667
vn -0.4364 0.2182 0.8729
vn -0.6963 0.1741 -0.6963
vn 0.6963 0.1741 -0.6963
vn 0.6963 0.1741 0.6963
vn 0.0000 0.4472 0.8944
vn 0.7071 0.0000 -0.7071
vn -0.7071 0.0000 -0.7071
vn 0.6667 0.3333 -0.6667
vn 0.9045 0.3015 -0.3015
vn 0.5774 0.5774 -0.5774
vn 0.8729 0.2182 0.4364
vn 0.8944 0.4472 0.0000
vn 0.7071 0.0000 0.7071
vn -0.7071 0.0000 0.7071
vn 0.6667 0.3333 0.6667
usemtl Material
s off
f 4/1/1 3/2/1 17/3/1 9/4/1 13/5/1 7/6/1 8/7/1
f 8/7/2 7/6/2 19/8/2 11/9/2 15/10/2 5/11/2 6/12/2
f 6/12/3 2/13/3 4/14/3 8/15/3
f 2/16/4 1/17/4 18/18/4 10/19/4 14/20/4 3/21/4 4/22/4
f 6/23/5 5/24/5 20/25/5 12/26/5 16/27/5 1/28/5 2/13/5
f 24/29/6 21/30/6 9/31/6 17/32/6
f 13/5/7 9/4/7 25/33/7
f 20/34/8 5/35/8 15/36/8 23/37/8
f 10/19/4 18/18/4 26/38/4 27/39/4
f 14/40/9 24/29/9 17/32/9 3/41/9
f 15/36/10 11/9/10 23/37/10
f 22/42/6 25/33/6 21/30/6
f 22/42/6 11/43/6 19/44/6 25/33/6
f 7/6/11 13/5/11 19/8/11
f 12/26/12 20/34/12 23/37/12
f 1/17/13 16/27/13 18/18/13
f 14/40/14 10/19/14 24/29/14
f 25/33/15 19/44/15 13/5/15
f 16/27/5 12/26/5 30/45/5 31/46/5
f 18/18/16 16/27/16 31/46/16 26/38/16
f 12/26/17 23/37/17 32/47/17 30/45/17
f 21/30/6 25/33/6 9/4/6
f 22/42/6 23/37/6 11/9/6
f 33/48/18 28/49/18 29/50/18
f 26/51/19 33/48/19 29/50/19 27/52/19
f 31/53/20 30/54/20 28/49/20 33/48/20
f 27/39/21 29/50/21 34/55/21
f 28/49/10 30/45/10 32/47/10
f 33/48/22 26/51/22 31/46/22
f 24/29/23 10/19/23 27/39/23 34/55/23
f 22/42/2 35/56/2 32/47/2 23/37/2
f 36/57/1 21/30/1 24/29/1 34/55/1
f 21/30/24 36/57/24 35/56/24 22/42/24
f 28/49/10 32/47/10 35/56/10
f 34/55/25 29/50/25 36/57/25
f 29/50/6 28/49/6 35/56/6 36/57/6
