# Blender v2.80 (sub 75) OBJ File: ''
# www.blender.org
mtllib Obsticle2rim.mtl
o Cube.001
v 1.000000 0.996894 -0.950000
v 0.950000 0.996894 -1.000000
v 0.964377 1.284981 -0.964377
v 0.950000 -1.000000 -1.000000
v 1.000000 -1.000000 -0.950000
v 0.950000 0.993845 1.000000
v 1.000000 0.950000 0.950000
v 0.982741 1.069036 0.950000
v 1.000000 -1.000000 0.950000
v 0.950000 -1.000000 1.000000
v -0.950000 0.950000 -1.000000
v -1.000000 0.988197 -0.950000
v -0.950000 1.059474 -0.970263
v -1.000000 -1.000000 -0.950000
v -0.950000 -1.000000 -1.000000
v -1.000000 0.993845 0.950000
v -0.950000 0.988197 1.000000
v -0.973651 1.150288 0.975603
v -0.950000 -1.000000 1.000000
v -1.000000 -1.000000 0.950000
v 0.030902 2.950000 1.000000
v 0.000000 3.000000 0.943096
v -0.062556 2.949423 0.962732
v 1.000000 3.000000 -0.039551
v 0.979605 3.000000 0.020395
v -0.945793 3.000000 0.000000
v -0.962732 2.952860 -0.060838
v -1.000000 2.950000 0.030902
v -0.018362 3.000000 -0.981638
v 0.050746 3.000000 -1.000000
v -0.455279 1.977639 1.000000
v -0.543099 2.021549 0.986653
v 1.000000 0.950000 0.472488
v 0.982536 1.069857 0.500000
v -1.000000 1.977639 -0.455279
v -0.962732 2.074536 -0.500000
v 0.449254 3.000000 -1.000000
v 0.535622 3.000000 -0.964378
v 0.450000 3.000000 0.943362
v 0.460961 2.950000 1.000000
v 0.512127 2.951493 0.950000
v 0.964387 3.000000 -0.535613
v 1.000000 3.000000 -0.449254
v -0.945955 3.000000 0.450000
v -1.000000 2.950000 0.460961
v -0.974397 2.948794 0.525603
v -0.461723 0.950000 -1.000000
v -0.500000 1.065149 -0.983713
v 0.050000 3.000000 0.500000
v -0.035355 3.000000 0.464645
v -0.050000 3.000000 0.500000
v 0.000000 3.000000 0.550000
v -0.464645 3.000000 0.035355
v -0.500000 3.000000 -0.050000
v -0.550000 3.000000 0.000000
v -0.500000 3.000000 0.050000
v -0.470537 2.952860 -0.541248
v -0.500000 3.000000 -0.445793
v 0.529953 2.953938 0.481563
v 0.450000 3.000000 0.500000
v -0.500000 2.949286 0.525357
v -0.492565 3.000000 0.450000
v 0.964397 3.984603 -0.535603
v 1.012629 4.009423 -0.452690
v 1.000000 4.000000 -0.038248
v 0.977960 4.044080 0.022040
v 0.000000 6.000000 -0.429289
v 0.012099 5.952231 -0.535669
v 0.527796 5.842970 0.022922
v 0.500000 5.935211 -0.032394
v 0.429289 6.000000 0.000000
v 0.462732 5.952859 0.060838
v -0.019016 4.950000 -0.980985
v 0.000000 5.049939 -0.975030
v 0.050717 4.950000 -1.000000
v 0.535621 4.842155 -0.964379
v 0.449283 4.950000 -1.000000
v 0.500000 5.000000 -0.944440
v -0.500000 4.996286 -0.445955
v -0.474722 5.050555 -0.500000
v -0.464645 4.950000 -0.535355
v 0.462732 5.149071 0.462732
v 0.450000 4.988196 0.500000
v 0.527932 4.944135 0.472068
v -0.464645 5.950000 0.035355
v -0.429289 6.000000 0.000000
v -0.474261 5.952859 -0.049309
v -0.500000 5.788197 -0.050000
v -0.035355 5.950000 0.464645
v 0.050000 5.788197 0.500000
v 0.060838 5.952859 0.462732
v 0.000000 6.000000 0.429289
vt 0.369478 0.506251
vt 0.374612 0.500000
vt 0.375000 0.508644
vt 0.619238 0.256250
vt 0.618750 0.250000
vt 0.625000 0.252157
vt 0.868651 0.506250
vt 0.873525 0.500000
vt 0.875000 0.506250
vt 0.619238 0.506250
vt 0.619371 0.493750
vt 0.625000 0.499756
vt 0.624286 0.371137
vt 0.625000 0.375000
vt 0.625000 0.379093
vt 0.618224 0.570793
vt 0.618868 0.569815
vt 0.625000 0.625000
vt 0.443750 0.242920
vt 0.442380 0.250000
vt 0.437500 0.243750
vt 0.618244 0.181250
vt 0.625000 0.182620
vt 0.621800 0.187500
vt 0.493750 0.187500
vt 0.500000 0.187500
vt 0.500000 0.187500
vt 0.500000 0.193750
vt 0.558081 0.129419
vt 0.562500 0.125000
vt 0.562500 0.125000
vt 0.562500 0.131250
vt 0.434025 0.155662
vt 0.435594 0.140244
vt 0.437500 0.125000
vt 0.437500 0.128878
vt 0.863115 0.603608
vt 0.867197 0.610955
vt 0.875000 0.625000
vt 0.839379 0.678595
vt 0.875000 0.687500
vt 0.865740 0.685185
vt 0.518434 0.059463
vt 0.559340 0.062500
vt 0.584597 0.102275
vt 0.404891 0.168866
vt 0.408135 0.174144
vt 0.434008 0.211941
vt 0.009084 0.002375
vt 0.034479 0.005295
vt 0.052255 0.006164
vt 0.076760 0.010808
vt 0.008625 0.002834
vt 0.061981 0.025587
vt 0.053233 0.018156
vt 0.031812 0.007963
vt 0.125000 0.506250
vt 0.125000 0.500000
vt 0.375000 0.493750
vt 0.375000 0.506250
vt 0.375000 0.256250
vt 0.375000 0.250000
vt 0.625000 0.506250
vt 0.625000 0.500000
vt 0.625000 0.445203
vt 0.622954 0.431910
vt 0.377183 0.187500
vt 0.377157 0.243750
vt 0.375000 0.243750
vt 0.375000 0.187500
vt 0.620342 0.062500
vt 0.618897 0.003276
vt 0.625000 0.000660
vt 0.625000 0.062500
vt 0.839378 0.678595
vt 0.410623 0.517811
vt 0.377210 0.500829
vt 0.875000 0.687500
vt 0.500000 0.242887
vt 0.496137 0.250000
vt 0.618224 0.125000
vt 0.625000 0.128863
vt 0.562500 0.002036
vt 0.863524 0.604343
vt 0.875000 0.625000
vt 0.562500 0.000000
vt 0.620342 0.364186
vt 0.621080 0.424957
vt 0.377549 0.607154
vt 0.375000 0.625000
vt 0.620341 0.556557
vt 0.625000 0.609453
vt 0.435984 0.243750
vt 0.436316 0.250000
vt 0.375187 0.250000
vt 0.410613 0.571403
vt 0.375000 0.568843
vt 0.625000 0.556099
vt 0.624345 0.567380
vt 0.618750 0.000000
vt 0.377755 0.605715
vt 0.375000 0.620056
vt 0.375000 0.620219
vt 0.375000 0.568414
vt 0.410603 0.571401
vt 0.875000 0.681157
vt 0.875000 0.681160
vt 0.875000 0.631340
vt 0.875000 0.631343
vt 0.562500 0.069276
vt 0.584597 0.102275
vt 0.443750 0.187500
vt 0.435925 0.185195
vt 0.625000 0.200302
vt 0.565670 0.200179
vt 0.561571 0.181250
vt 0.559472 0.010204
vt 0.610774 0.353661
vt 0.549071 0.168750
vt 0.375000 0.625000
vt 0.500000 0.003121
vt 0.437500 0.006945
vt 0.443840 0.000000
vt 0.493660 0.000000
vt 0.461101 0.061624
vt 0.410108 0.112618
vt 0.437500 0.120951
vt 0.499815 0.059368
vt 0.404891 0.118629
vt 0.856273 0.596909
vt 0.826385 0.618050
vt 0.333759 0.003363
vt 0.381735 0.070919
vt 0.810511 0.606889
vt 0.434476 0.208671
vt 0.562500 0.118750
vt 0.493750 0.187500
vt 0.504419 0.183081
vt 0.538790 0.066976
vn 0.7061 0.0521 -0.7061
vn 0.7489 0.1086 0.6537
vn -0.6075 0.2082 -0.7666
vn -0.7069 0.0033 0.7073
vn -0.2893 0.6357 0.7157
vn -0.7321 0.6219 -0.2780
vn 0.4896 0.6985 0.5219
vn -0.6263 0.7343 0.2618
vn 0.0000 1.0000 0.0000
vn 0.8111 0.5412 0.2218
vn -0.2616 0.1069 -0.9592
vn 0.6049 0.2327 -0.7616
vn -0.9211 0.0437 -0.3869
vn 0.4178 0.1735 0.8918
vn -0.9500 0.2894 0.1177
vn 0.0094 0.3186 0.9478
vn 0.7071 0.0000 -0.7071
vn -0.7071 0.0000 0.7071
vn 0.7071 0.0000 0.7071
vn -0.7071 0.0000 -0.7071
vn -0.1786 0.0830 0.9804
vn 0.9896 0.1439 -0.0001
vn -0.8311 0.2369 -0.5031
vn 0.3795 0.0949 -0.9203
vn -0.0002 0.7504 0.6610
vn -0.6786 0.7345 -0.0001
vn -0.2458 0.0618 -0.9673
vn -0.2370 0.1327 0.9624
vn 0.9491 0.0768 0.3056
vn -0.9129 0.1826 -0.3651
vn 0.6860 0.1715 0.7071
vn 0.9203 0.0949 -0.3795
vn -0.9236 0.0928 0.3720
vn -0.0152 0.1982 -0.9800
vn 0.9430 0.0003 0.3327
vn 0.8965 -0.0064 -0.4431
vn 0.3813 -0.0000 -0.9244
vn -0.2600 0.0001 -0.9656
vn -0.9434 0.0019 -0.3317
vn 0.5548 0.8319 0.0131
vn -0.0003 0.8288 0.5595
vn -0.4759 0.7357 -0.4819
vn -0.4638 0.7551 0.4634
vn 0.9677 0.2461 0.0544
vn 0.0562 0.4724 -0.8796
vn 0.4252 0.8102 -0.4034
vn 0.7873 0.2757 0.5515
vn -0.6963 0.1745 -0.6962
vn 0.8595 0.2045 -0.4685
vn 0.2831 0.0024 0.9591
vn -0.9239 0.0000 0.3827
vn -0.3827 0.0000 0.9239
vn -0.9438 0.1479 -0.2955
vn 0.3651 0.1826 0.9129
vn -0.5000 0.7071 0.5000
vn -0.4097 0.8148 -0.4102
vn 0.4082 0.8165 0.4083
usemtl Material
s off
f 1/1/1 2/2/1 3/3/1
f 6/4/2 7/5/2 8/6/2
f 11/7/3 12/8/3 13/9/3
f 16/10/4 17/11/4 18/12/4
f 21/13/5 22/14/5 23/15/5
f 26/16/6 27/17/6 28/18/6
f 39/19/7 40/20/7 41/21/7
f 44/22/8 45/23/8 46/24/8
f 49/25/9 50/26/9 51/27/9 52/28/9
f 53/29/9 54/30/9 55/31/9 56/32/9
f 69/33/10 70/34/10 71/35/10 72/36/10
f 73/37/11 74/38/11 75/39/11
f 76/40/12 77/41/12 78/42/12
f 79/43/13 80/44/13 81/45/13
f 82/46/14 83/47/14 84/48/14
f 85/49/15 86/50/15 87/51/15 88/52/15
f 89/53/16 90/54/16 91/55/16 92/56/16
f 1/1/17 5/57/17 4/58/17 2/2/17
f 19/59/18 17/11/18 16/10/18 20/60/18
f 6/4/19 10/61/19 9/62/19 7/5/19
f 11/7/20 15/63/20 14/64/20 12/8/20
f 32/65/21 18/12/21 17/11/21 31/66/21
f 34/67/22 8/68/22 7/69/22 33/70/22
f 36/71/23 13/72/23 12/73/23 35/74/23
f 38/75/24 3/76/24 2/77/24 37/78/24
f 39/19/25 22/79/25 21/80/25 40/20/25
f 44/22/26 26/81/26 28/82/26 45/23/26
f 48/83/27 29/84/27 30/85/27 47/86/27
f 23/87/28 32/88/28 31/66/28 21/13/28
f 25/89/29 34/67/29 33/70/29 24/90/29
f 27/91/30 36/71/30 35/74/30 28/92/30
f 8/68/31 41/93/31 40/94/31 6/95/31
f 3/76/32 42/96/32 43/97/32 1/1/32
f 18/12/33 46/98/33 45/99/33 16/10/33
f 13/72/34 48/83/34 47/86/34 11/100/34
f 66/101/35 25/89/35 24/102/35 65/103/35
f 64/104/36 43/97/36 42/96/36 63/105/36
f 37/106/37 77/107/37 76/40/37 38/75/37
f 75/108/38 30/109/38 29/84/38 73/37/38
f 58/110/39 79/43/39 81/45/39 57/111/39
f 60/112/40 39/19/40 41/93/40 59/113/40
f 46/114/41 61/115/41 62/116/41 44/22/41
f 26/16/42 58/110/42 57/117/42 27/91/42
f 22/118/43 62/119/43 61/115/43 23/87/43
f 69/33/44 66/101/44 65/120/44 70/34/44
f 74/121/45 78/122/45 77/123/45 75/124/45
f 67/125/46 71/126/46 70/127/46 68/128/46
f 72/129/47 82/46/47 84/48/47 69/33/47
f 73/37/48 81/45/48 80/44/48 74/130/48
f 78/131/49 64/132/49 63/133/49 76/134/49
f 83/47/50 60/112/50 59/135/50 84/48/50
f 53/29/51 85/49/51 88/52/51 54/136/51
f 49/137/52 90/54/52 89/53/52 50/138/52
f 79/43/53 88/52/53 87/51/53 80/44/53
f 82/46/54 91/55/54 90/54/54 83/47/54
f 85/49/55 89/53/55 92/56/55 86/50/55
f 68/139/56 87/51/56 86/50/56 67/125/56
f 71/126/57 92/56/57 91/55/57 72/129/57
