# Blender v2.80 (sub 75) OBJ File: ''
# www.blender.org
mtllib ring mesh.mtl
o Cylinder
v 0.000000 1.000000 -0.200000
v 0.000000 1.000000 0.200000
v 0.195090 0.980785 -0.200000
v 0.195090 0.980785 0.200000
v 0.382683 0.923880 -0.200000
v 0.382683 0.923879 0.200000
v 0.555570 0.831470 -0.200000
v 0.555570 0.831470 0.200000
v 0.707107 0.707107 -0.200000
v 0.707107 0.707107 0.200000
v 0.831470 0.555570 -0.200000
v 0.831470 0.555570 0.200000
v 0.923880 0.382683 -0.200000
v 0.923880 0.382683 0.200000
v 0.980785 0.195090 -0.200000
v 0.980785 0.195090 0.200000
v 1.000000 0.000000 -0.200000
v 1.000000 0.000000 0.200000
v 0.980785 -0.195090 -0.200000
v 0.980785 -0.195090 0.200000
v 0.923880 -0.382683 -0.200000
v 0.923880 -0.382683 0.200000
v 0.831470 -0.555570 -0.200000
v 0.831470 -0.555570 0.200000
v 0.707107 -0.707107 -0.200000
v 0.707107 -0.707107 0.200000
v 0.555570 -0.831470 -0.200000
v 0.555570 -0.831470 0.200000
v 0.382683 -0.923880 -0.200000
v 0.382683 -0.923880 0.200000
v 0.195090 -0.980785 -0.200000
v 0.195090 -0.980785 0.200000
v -0.000000 -1.000000 -0.200000
v -0.000000 -1.000000 0.200000
v -0.195091 -0.980785 -0.200000
v -0.195091 -0.980785 0.200000
v -0.382684 -0.923879 -0.200000
v -0.382684 -0.923879 0.200000
v -0.555571 -0.831469 -0.200000
v -0.555571 -0.831469 0.200000
v -0.707107 -0.707106 -0.200000
v -0.707107 -0.707106 0.200000
v -0.831470 -0.555570 -0.200000
v -0.831470 -0.555570 0.200000
v -0.923880 -0.382683 -0.200000
v -0.923880 -0.382683 0.200000
v -0.980785 -0.195089 -0.200000
v -0.980785 -0.195090 0.200000
v -1.000000 0.000001 -0.200000
v -1.000000 0.000001 0.200000
v -0.980785 0.195091 -0.200000
v -0.980785 0.195091 0.200000
v -0.923879 0.382684 -0.200000
v -0.923879 0.382684 0.200000
v -0.831469 0.555571 -0.200000
v -0.831469 0.555571 0.200000
v -0.707106 0.707108 -0.200000
v -0.707106 0.707108 0.200000
v -0.555569 0.831470 -0.200000
v -0.555569 0.831470 0.200000
v -0.382682 0.923880 -0.200000
v -0.382682 0.923880 0.200000
v -0.195089 0.980786 -0.200000
v -0.195089 0.980785 0.200000
v -0.000000 1.100000 -0.220000
v 0.214599 1.078864 -0.220000
v 0.214599 1.078864 0.220000
v -0.000000 1.100000 0.220000
v 0.420952 1.016268 -0.220000
v 0.420952 1.016267 0.220000
v 0.611127 0.914617 -0.220000
v 0.611127 0.914616 0.220000
v 0.777817 0.777817 -0.220000
v 0.777817 0.777817 0.220000
v 0.914617 0.611127 -0.220000
v 0.914617 0.611127 0.220000
v 1.016267 0.420952 -0.220000
v 1.016267 0.420952 0.220000
v 1.078864 0.214599 -0.220000
v 1.078864 0.214599 0.220000
v 1.100000 0.000000 -0.220000
v 1.100000 0.000000 0.220000
v 1.078864 -0.214599 -0.220000
v 1.078864 -0.214599 0.220000
v 1.016267 -0.420952 -0.220000
v 1.016267 -0.420952 0.220000
v 0.914617 -0.611127 -0.220000
v 0.914617 -0.611127 0.220000
v 0.777817 -0.777817 -0.220000
v 0.777817 -0.777818 0.220000
v 0.611127 -0.914617 -0.220000
v 0.611127 -0.914617 0.220000
v 0.420952 -1.016268 -0.220000
v 0.420952 -1.016268 0.220000
v 0.214599 -1.078864 -0.220000
v 0.214599 -1.078864 0.220000
v -0.000000 -1.100000 -0.220000
v -0.000000 -1.100000 0.220000
v -0.214600 -1.078864 -0.220000
v -0.214600 -1.078864 0.220000
v -0.420952 -1.016267 -0.220000
v -0.420952 -1.016267 0.220000
v -0.611128 -0.914616 -0.220000
v -0.611128 -0.914616 0.220000
v -0.777818 -0.777817 -0.220000
v -0.777818 -0.777817 0.220000
v -0.914617 -0.611127 -0.220000
v -0.914617 -0.611127 0.220000
v -1.016268 -0.420951 -0.220000
v -1.016268 -0.420951 0.220000
v -1.078864 -0.214598 -0.220000
v -1.078864 -0.214598 0.220000
v -1.100000 0.000001 -0.220000
v -1.100000 0.000001 0.220000
v -1.078864 0.214601 -0.220000
v -1.078864 0.214600 0.220000
v -1.016267 0.420953 -0.220000
v -1.016267 0.420953 0.220000
v -0.914616 0.611128 -0.220000
v -0.914616 0.611128 0.220000
v -0.777816 0.777819 -0.220000
v -0.777816 0.777818 0.220000
v -0.611126 0.914617 -0.220000
v -0.611126 0.914617 0.220000
v -0.420950 1.016268 -0.220000
v -0.420950 1.016268 0.220000
v -0.214598 1.078864 -0.220000
v -0.214598 1.078864 0.220000
v 0.611127 -1.414617 0.220000
v 0.611127 -1.414617 -0.220000
v -0.611128 -1.414616 -0.220000
v -0.611128 -1.414616 0.220000
v -0.412864 -1.246740 0.220000
v 0.412863 -1.246740 0.220000
v 0.412863 -1.246740 -0.220000
v -0.412864 -1.246740 -0.220000
vt 0.449553 0.116663
vt 0.419706 0.080294
vt 0.419706 0.080294
vt 0.449553 0.116663
vt 0.550447 0.116663
vt 0.580294 0.080294
vt 0.580294 0.080294
vt 0.550447 0.116663
vt 0.341844 0.471731
vt 0.383337 0.449553
vt 0.383337 0.449553
vt 0.341844 0.471731
vt 0.919706 0.080294
vt 0.949553 0.116663
vt 0.949553 0.116663
vt 0.919706 0.080294
vt 0.080295 0.419706
vt 0.116663 0.449553
vt 0.116663 0.449553
vt 0.080295 0.419706
vt 0.883337 0.449553
vt 0.841844 0.471731
vt 0.841844 0.471731
vt 0.883337 0.449553
vt 0.116663 0.050447
vt 0.080294 0.080294
vt 0.080294 0.080294
vt 0.116663 0.050447
vt 0.616663 0.449553
vt 0.580295 0.419706
vt 0.580295 0.419706
vt 0.616663 0.449553
vt 0.471731 0.158156
vt 0.471731 0.158156
vt 0.616663 0.050447
vt 0.616663 0.050447
vt 0.296822 0.485388
vt 0.296822 0.485388
vt 0.971731 0.158156
vt 0.971731 0.158156
vt 0.050447 0.383337
vt 0.050447 0.383337
vt 0.796822 0.485388
vt 0.796822 0.485388
vt 0.158156 0.028269
vt 0.158156 0.028269
vt 0.550447 0.383337
vt 0.550447 0.383337
vt 0.485388 0.203178
vt 0.485388 0.203178
vt 0.658156 0.028269
vt 0.658156 0.028269
vt 0.985388 0.203178
vt 0.985388 0.203178
vt 0.028269 0.341844
vt 0.028269 0.341844
vt 0.250000 0.490000
vt 0.250000 0.490000
vt 0.203178 0.014612
vt 0.203178 0.014612
vt 0.528269 0.341844
vt 0.528269 0.341844
vt 0.750000 0.490000
vt 0.750000 0.490000
vt 0.490000 0.250000
vt 0.490000 0.250000
vt 0.703178 0.014612
vt 0.703178 0.014612
vt 0.990000 0.250000
vt 0.990000 0.250000
vt 0.014612 0.296822
vt 0.014612 0.296822
vt 0.250000 0.010000
vt 0.250000 0.010000
vt 0.514612 0.296822
vt 0.514612 0.296822
vt 0.485388 0.296822
vt 0.485388 0.296822
vt 0.750000 0.010000
vt 0.750000 0.010000
vt 1.000000 0.500000
vt 1.000000 1.000000
vt 0.968750 1.000000
vt 0.968750 0.500000
vt 0.937500 1.000000
vt 0.937500 0.500000
vt 0.906250 1.000000
vt 0.906250 0.500000
vt 0.875000 1.000000
vt 0.875000 0.500000
vt 0.843750 1.000000
vt 0.843750 0.500000
vt 0.812500 1.000000
vt 0.812500 0.500000
vt 0.781250 1.000000
vt 0.781250 0.500000
vt 0.750000 1.000000
vt 0.750000 0.500000
vt 0.718750 1.000000
vt 0.718750 0.500000
vt 0.687500 1.000000
vt 0.687500 0.500000
vt 0.656250 1.000000
vt 0.656250 0.500000
vt 0.625000 1.000000
vt 0.625000 0.500000
vt 0.593750 1.000000
vt 0.593750 0.500000
vt 0.531250 0.500000
vt 0.531250 1.000000
vt 0.500000 1.000000
vt 0.500000 0.500000
vt 0.468750 1.000000
vt 0.468750 0.500000
vt 0.406250 1.000000
vt 0.406250 0.500000
vt 0.406250 0.500000
vt 0.406250 1.000000
vt 0.375000 1.000000
vt 0.375000 0.500000
vt 0.343750 1.000000
vt 0.343750 0.500000
vt 0.312500 1.000000
vt 0.312500 0.500000
vt 0.281250 1.000000
vt 0.281250 0.500000
vt 0.250000 1.000000
vt 0.250000 0.500000
vt 0.218750 1.000000
vt 0.218750 0.500000
vt 0.187500 1.000000
vt 0.187500 0.500000
vt 0.156250 1.000000
vt 0.156250 0.500000
vt 0.125000 1.000000
vt 0.125000 0.500000
vt 0.093750 1.000000
vt 0.093750 0.500000
vt 0.062500 1.000000
vt 0.062500 0.500000
vt 0.031250 1.000000
vt 0.031250 0.500000
vt 0.000000 1.000000
vt 0.000000 0.500000
vt 0.658156 0.471731
vt 0.658156 0.471731
vt 0.050447 0.116663
vt 0.050447 0.116663
vt 0.919706 0.419706
vt 0.919706 0.419706
vt 0.158156 0.471731
vt 0.158156 0.471731
vt 0.883337 0.050447
vt 0.883337 0.050447
vt 0.419706 0.419706
vt 0.419706 0.419706
vt 0.528269 0.158156
vt 0.528269 0.158156
vt 0.383337 0.050447
vt 0.383337 0.050447
vt 0.703179 0.485389
vt 0.703179 0.485389
vt 0.028269 0.158156
vt 0.028269 0.158156
vt 0.949553 0.383337
vt 0.949553 0.383337
vt 0.203179 0.485389
vt 0.203179 0.485389
vt 0.841844 0.028269
vt 0.841844 0.028269
vt 0.449553 0.383337
vt 0.449553 0.383337
vt 0.514611 0.203179
vt 0.514611 0.203179
vt 0.341844 0.028269
vt 0.341844 0.028269
vt 0.014611 0.203179
vt 0.014611 0.203179
vt 0.971731 0.341844
vt 0.971731 0.341844
vt 0.796822 0.014612
vt 0.796822 0.014612
vt 0.471731 0.341844
vt 0.471731 0.341844
vt 0.510000 0.250000
vt 0.510000 0.250000
vt 0.296822 0.014612
vt 0.296822 0.014612
vt 0.010000 0.250000
vt 0.010000 0.250000
vt 0.985388 0.296822
vt 0.985388 0.296822
vt 0.593750 1.000000
vt 0.593750 0.500000
vt 0.445286 0.507306
vt 0.304714 0.507306
vt 0.695286 0.257306
vt 0.000000 0.000000
vt 0.351589 0.007306
vn -0.1523 0.1250 0.9804
vn 0.1523 0.1250 -0.9804
vn -0.0929 -0.1738 0.9804
vn -0.1523 0.1250 -0.9804
vn 0.1250 -0.1523 0.9804
vn -0.0929 -0.1738 -0.9804
vn 0.1250 0.1523 0.9804
vn 0.1250 -0.1523 -0.9804
vn -0.1738 0.0929 0.9804
vn 0.1250 0.1523 -0.9804
vn -0.0572 -0.1885 0.9804
vn -0.1738 0.0929 -0.9804
vn 0.1523 -0.1250 0.9804
vn -0.0572 -0.1885 -0.9804
vn 0.0929 0.1738 0.9804
vn 0.1523 -0.1250 -0.9804
vn -0.1885 0.0572 0.9804
vn 0.0929 0.1738 -0.9804
vn -0.1885 0.0572 -0.9804
vn 0.1738 -0.0929 0.9804
vn -0.0193 -0.1961 0.9804
vn 0.0572 0.1885 0.9804
vn 0.1738 -0.0929 -0.9804
vn -0.0193 -0.1961 -0.9804
vn -0.1961 0.0193 0.9804
vn 0.0572 0.1885 -0.9804
vn -0.1961 0.0193 -0.9804
vn 0.1885 -0.0572 0.9804
vn 0.0193 0.1961 0.9804
vn 0.1885 -0.0572 -0.9804
vn -0.7730 0.6344 0.0000
vn -0.1961 -0.0193 0.9804
vn 0.0193 0.1961 -0.9804
vn -0.8819 0.4714 0.0000
vn 0.0980 0.9952 0.0000
vn 0.2903 0.9569 0.0000
vn 0.4714 0.8819 0.0000
vn 0.6344 0.7730 0.0000
vn 0.7730 0.6344 0.0000
vn 0.8819 0.4714 0.0000
vn 0.9569 0.2903 0.0000
vn 0.9952 0.0980 0.0000
vn 0.9952 -0.0980 -0.0000
vn 0.9569 -0.2903 -0.0000
vn 0.8819 -0.4714 -0.0000
vn 0.7730 -0.6344 -0.0000
vn 0.6344 -0.7730 -0.0000
vn 0.0980 -0.9952 -0.0000
vn -0.0980 -0.9952 -0.0000
vn -1.0000 0.0000 0.0000
vn -0.6344 -0.7730 -0.0000
vn -0.7730 -0.6344 -0.0000
vn -0.8819 -0.4714 -0.0000
vn -0.9569 -0.2903 -0.0000
vn -0.9952 -0.0980 -0.0000
vn -0.9952 0.0980 0.0000
vn -0.9569 0.2903 0.0000
vn -0.6344 0.7730 0.0000
vn -0.4714 0.8819 0.0000
vn -0.2903 0.9569 0.0000
vn -0.0980 0.9952 0.0000
vn 0.0929 -0.1738 -0.9804
vn 0.1523 0.1250 0.9804
vn -0.1250 -0.1523 -0.9804
vn 0.0929 -0.1738 0.9804
vn -0.1250 0.1523 -0.9804
vn -0.1250 -0.1523 0.9804
vn 0.1738 0.0929 -0.9804
vn -0.1250 0.1523 0.9804
vn 0.0572 -0.1885 -0.9804
vn 0.1738 0.0929 0.9804
vn -0.1523 -0.1250 -0.9804
vn 0.0572 -0.1885 0.9804
vn -0.0929 0.1738 -0.9804
vn -0.1523 -0.1250 0.9804
vn 0.1885 0.0572 -0.9804
vn -0.0929 0.1738 0.9804
vn 0.0193 -0.1961 -0.9804
vn 0.1885 0.0572 0.9804
vn -0.1738 -0.0929 -0.9804
vn 0.0193 -0.1961 0.9804
vn -0.0572 0.1885 -0.9804
vn -0.1738 -0.0929 0.9804
vn 0.1961 0.0193 -0.9804
vn -0.0572 0.1885 0.9804
vn 0.1961 0.0193 0.9804
vn -0.1885 -0.0572 -0.9804
vn -0.0193 0.1961 -0.9804
vn -0.1885 -0.0572 0.9804
vn 0.1961 -0.0193 -0.9804
vn -0.0193 0.1961 0.9804
vn 0.1961 -0.0193 0.9804
vn -0.1961 -0.0193 -0.9804
vn -0.4714 -0.8819 -0.0000
vn -0.2903 -0.9569 -0.0000
vn 0.2903 -0.9569 -0.0000
vn 0.4714 -0.8819 -0.0000
vn 1.0000 -0.0000 -0.0000
vn -0.0000 -1.0000 -0.0000
vn 0.0000 -0.0000 1.0000
vn -0.0000 0.0000 -1.0000
vn 0.0000 1.0000 0.0000
vn -0.6462 -0.7632 -0.0000
vn 0.6462 -0.7632 -0.0000
usemtl None
s off
f 24/1/1 26/2/1 90/3/1 88/4/1
f 43/5/2 41/6/2 105/7/2 107/8/2
f 6/9/3 8/10/3 72/11/3 70/12/3
f 25/13/4 23/14/4 87/15/4 89/16/4
f 58/17/5 60/18/5 124/19/5 122/20/5
f 7/21/6 5/22/6 69/23/6 71/24/6
f 40/25/7 42/26/7 106/27/7 104/28/7
f 59/29/8 57/30/8 121/31/8 123/32/8
f 22/33/9 24/1/9 88/4/9 86/34/9
f 41/6/10 39/35/10 103/36/10 105/7/10
f 4/37/11 6/9/11 70/12/11 67/38/11
f 23/14/12 21/39/12 85/40/12 87/15/12
f 56/41/13 58/17/13 122/20/13 120/42/13
f 5/22/14 3/43/14 66/44/14 69/23/14
f 38/45/15 40/25/15 104/28/15 102/46/15
f 57/30/16 55/47/16 119/48/16 121/31/16
f 20/49/17 22/33/17 86/34/17 84/50/17
f 39/35/18 37/51/18 101/52/18 103/36/18
f 21/39/19 19/53/19 83/54/19 85/40/19
f 54/55/20 56/41/20 120/42/20 118/56/20
f 2/57/21 4/37/21 67/38/21 68/58/21
f 36/59/22 38/45/22 102/46/22 100/60/22
f 55/47/23 53/61/23 117/62/23 119/48/23
f 3/43/24 1/63/24 65/64/24 66/44/24
f 18/65/25 20/49/25 84/50/25 82/66/25
f 37/51/26 35/67/26 99/68/26 101/52/26
f 19/53/27 17/69/27 81/70/27 83/54/27
f 52/71/28 54/55/28 118/56/28 116/72/28
f 34/73/29 36/59/29 100/60/29 98/74/29
f 53/61/30 51/75/30 115/76/30 117/62/30
f 23/14/31 25/13/31 26/2/31 24/1/31
f 16/77/32 18/65/32 82/66/32 80/78/32
f 35/67/33 33/79/33 97/80/33 99/68/33
f 21/39/34 23/14/34 24/1/34 22/33/34
f 65/81/35 68/82/35 67/83/35 66/84/35
f 66/84/36 67/83/36 70/85/36 69/86/36
f 69/86/37 70/85/37 72/87/37 71/88/37
f 71/88/38 72/87/38 74/89/38 73/90/38
f 73/90/39 74/89/39 76/91/39 75/92/39
f 75/92/40 76/91/40 78/93/40 77/94/40
f 77/94/41 78/93/41 80/95/41 79/96/41
f 79/96/42 80/95/42 82/97/42 81/98/42
f 81/98/43 82/97/43 84/99/43 83/100/43
f 83/100/44 84/99/44 86/101/44 85/102/44
f 85/102/45 86/101/45 88/103/45 87/104/45
f 87/104/46 88/103/46 90/105/46 89/106/46
f 89/106/47 90/105/47 92/107/47 91/108/47
f 95/109/48 96/110/48 98/111/48 97/112/48
f 97/112/49 98/111/49 100/113/49 99/114/49
f 104/115/50 103/116/50 131/117/50 132/118/50
f 103/116/51 104/115/51 106/119/51 105/120/51
f 105/120/52 106/119/52 108/121/52 107/122/52
f 107/122/53 108/121/53 110/123/53 109/124/53
f 109/124/54 110/123/54 112/125/54 111/126/54
f 111/126/55 112/125/55 114/127/55 113/128/55
f 113/128/56 114/127/56 116/129/56 115/130/56
f 115/130/57 116/129/57 118/131/57 117/132/57
f 117/132/34 118/131/34 120/133/34 119/134/34
f 119/134/31 120/133/31 122/135/31 121/136/31
f 121/136/58 122/135/58 124/137/58 123/138/58
f 123/138/59 124/137/59 126/139/59 125/140/59
f 125/140/60 126/139/60 128/141/60 127/142/60
f 127/142/61 128/141/61 68/143/61 65/144/61
f 61/145/62 59/29/62 123/32/62 125/146/62
f 42/26/63 44/147/63 108/148/63 106/27/63
f 9/149/64 7/21/64 71/24/64 73/150/64
f 60/18/65 62/151/65 126/152/65 124/19/65
f 27/153/66 25/13/66 89/16/66 91/154/66
f 8/10/67 10/155/67 74/156/67 72/11/67
f 45/157/68 43/5/68 107/8/68 109/158/68
f 26/2/69 28/159/69 92/160/69 90/3/69
f 63/161/70 61/145/70 125/146/70 127/162/70
f 44/147/71 46/163/71 110/164/71 108/148/71
f 11/165/72 9/149/72 73/150/72 75/166/72
f 62/151/73 64/167/73 128/168/73 126/152/73
f 29/169/74 27/153/74 91/154/74 93/170/74
f 10/155/75 12/171/75 76/172/75 74/156/75
f 47/173/76 45/157/76 109/158/76 111/174/76
f 28/159/77 30/175/77 94/176/77 92/160/77
f 1/63/78 63/161/78 127/162/78 65/64/78
f 46/163/79 48/177/79 112/178/79 110/164/79
f 13/179/80 11/165/80 75/166/80 77/180/80
f 64/167/81 2/57/81 68/58/81 128/168/81
f 31/181/82 29/169/82 93/170/82 95/182/82
f 12/171/83 14/183/83 78/184/83 76/172/83
f 49/185/84 47/173/84 111/174/84 113/186/84
f 30/175/85 32/187/85 96/188/85 94/176/85
f 48/177/86 50/189/86 114/190/86 112/178/86
f 15/191/87 13/179/87 77/180/87 79/192/87
f 33/79/88 31/181/88 95/182/88 97/80/88
f 14/183/89 16/77/89 80/78/89 78/184/89
f 51/75/90 49/185/90 113/186/90 115/76/90
f 32/187/91 34/73/91 98/74/91 96/188/91
f 50/189/92 52/71/92 116/72/92 114/190/92
f 17/69/93 15/191/93 79/192/93 81/70/93
f 19/53/57 21/39/57 22/33/57 20/49/57
f 17/69/56 19/53/56 20/49/56 18/65/56
f 15/191/55 17/69/55 18/65/55 16/77/55
f 13/179/54 15/191/54 16/77/54 14/183/54
f 11/165/53 13/179/53 14/183/53 12/171/53
f 9/149/52 11/165/52 12/171/52 10/155/52
f 7/21/51 9/149/51 10/155/51 8/10/51
f 5/22/94 7/21/94 8/10/94 6/9/94
f 3/43/95 5/22/95 6/9/95 4/37/95
f 1/63/49 3/43/49 4/37/49 2/57/49
f 63/161/48 1/63/48 2/57/48 64/167/48
f 61/145/96 63/161/96 64/167/96 62/151/96
f 59/29/97 61/145/97 62/151/97 60/18/97
f 57/30/47 59/29/47 60/18/47 58/17/47
f 55/47/46 57/30/46 58/17/46 56/41/46
f 53/61/45 55/47/45 56/41/45 54/55/45
f 51/75/44 53/61/44 54/55/44 52/71/44
f 49/185/43 51/75/43 52/71/43 50/189/43
f 47/173/42 49/185/42 50/189/42 48/177/42
f 45/157/41 47/173/41 48/177/41 46/163/41
f 43/5/40 45/157/40 46/163/40 44/147/40
f 41/6/39 43/5/39 44/147/39 42/26/39
f 39/35/38 41/6/38 42/26/38 40/25/38
f 37/51/37 39/35/37 40/25/37 38/45/37
f 35/67/36 37/51/36 38/45/36 36/59/36
f 33/79/35 35/67/35 36/59/35 34/73/35
f 31/181/61 33/79/61 34/73/61 32/187/61
f 29/169/60 31/181/60 32/187/60 30/175/60
f 27/153/59 29/169/59 30/175/59 28/159/59
f 25/13/58 27/153/58 28/159/58 26/2/58
f 91/108/98 92/107/98 129/193/98 130/194/98
f 130/194/99 129/193/99 132/118/99 131/117/99
f 92/107/100 94/176/100 129/193/100
f 94/176/100 96/188/100 134/195/100 129/193/100
f 104/28/100 132/118/100 102/46/100
f 102/46/100 132/118/100 133/196/100 100/60/100
f 132/118/100 129/193/100 134/195/100 133/196/100
f 93/170/101 91/108/101 130/194/101
f 95/182/101 93/170/101 130/194/101 135/197/101
f 131/198/101 101/52/101 99/68/101 136/199/101
f 103/36/101 101/52/101 131/198/101
f 131/198/101 136/199/101 135/197/101 130/194/101
f 133/196/102 134/195/102 135/197/102 136/199/102
f 95/182/103 135/197/103 134/195/103 96/188/103
f 99/68/104 100/60/104 133/196/104 136/199/104
