# Blender v2.82 (sub 7) OBJ File: 'TABLE.blend'
# www.blender.org
mtllib TABLE.mtl
o Plane
v -1.000000 0.000000 1.000000
v 1.000000 0.000000 1.000000
v -1.000000 0.000000 -1.000000
v 1.000000 0.000000 -1.000000
v -1.000000 20.000000 6.000000
v 1.000000 20.000000 6.000000
v -1.000000 20.000000 4.000000
v 1.000000 20.000000 4.000000
v -1.000000 40.000000 11.000000
v 1.000000 40.000000 11.000000
v -1.000000 40.000000 9.000000
v 1.000000 40.000000 9.000000
v -1.000000 22.000000 6.000000
v 1.000000 22.000000 6.000000
v -1.000000 20.000000 46.000000
v 1.000000 20.000000 46.000000
v -1.000000 22.000000 46.000000
v 1.000000 22.000000 46.000000
v -1.000000 20.000000 48.000000
v 1.000000 20.000000 48.000000
v -1.000000 40.000000 41.000000
v 1.000000 40.000000 41.000000
v -1.000000 40.000000 43.000000
v 1.000000 40.000000 43.000000
v -1.000000 0.000000 51.000000
v 1.000000 0.000000 51.000000
v -1.000000 0.000000 53.000000
v 1.000000 0.000000 53.000000
v 6.000000 40.000000 11.000000
v 6.000000 40.000000 9.000000
v 6.000000 40.000000 41.000000
v 6.000000 40.000000 43.000000
v -1.000000 40.000000 48.000000
v 1.000000 40.000000 48.000000
v 6.000000 40.000000 48.000000
v -1.000000 40.000000 4.000000
v 1.000000 40.000000 4.000000
v 6.000000 40.000000 4.000000
v -76.000000 40.000000 11.000000
v -76.000000 40.000000 9.000000
v -76.000000 40.000000 41.000000
v -76.000000 40.000000 43.000000
v -76.000000 40.000000 48.000000
v -76.000000 40.000000 4.000000
v -74.000000 40.000000 11.000000
v -74.000000 40.000000 9.000000
v -74.000000 40.000000 41.000000
v -74.000000 40.000000 43.000000
v -74.000000 40.000000 48.000000
v -74.000000 40.000000 4.000000
v -81.000000 40.000000 11.000000
v -81.000000 40.000000 9.000000
v -81.000000 40.000000 41.000000
v -81.000000 40.000000 43.000000
v -81.000000 40.000000 48.000000
v -81.000000 40.000000 4.000000
v -76.000000 20.000000 4.000000
v -76.000000 20.000000 6.000000
v -74.000000 20.000000 4.000000
v -74.000000 20.000000 6.000000
v -76.000000 0.000000 -1.000000
v -76.000000 0.000000 1.000000
v -74.000000 0.000000 -1.000000
v -74.000000 0.000000 1.000000
v -76.000000 20.000000 46.000000
v -76.000000 20.000000 48.000000
v -74.000000 20.000000 46.000000
v -74.000000 20.000000 48.000000
v -76.000000 0.000000 51.000000
v -76.000000 0.000000 53.000000
v -74.000000 0.000000 51.000000
v -74.000000 0.000000 53.000000
v -76.000000 22.000000 46.000000
v -74.000000 22.000000 46.000000
v -76.000000 20.000000 6.000000
v -74.000000 20.000000 6.000000
v -76.000000 22.000000 6.000000
v -74.000000 22.000000 6.000000
v -1.000000 42.000000 11.000000
v 1.000000 42.000000 11.000000
v -1.000000 42.000000 9.000000
v 1.000000 42.000000 9.000000
v -1.000000 42.000000 41.000000
v 1.000000 42.000000 41.000000
v -1.000000 42.000000 43.000000
v 1.000000 42.000000 43.000000
v 6.000000 42.000000 11.000000
v 6.000000 42.000000 9.000000
v 6.000000 42.000000 41.000000
v 6.000000 42.000000 43.000000
v -1.000000 42.000000 48.000000
v 1.000000 42.000000 48.000000
v 6.000000 42.000000 48.000000
v -1.000000 42.000000 4.000000
v 1.000000 42.000000 4.000000
v 6.000000 42.000000 4.000000
v -76.000000 42.000000 11.000000
v -76.000000 42.000000 9.000000
v -76.000000 42.000000 41.000000
v -76.000000 42.000000 43.000000
v -76.000000 42.000000 48.000000
v -76.000000 42.000000 4.000000
v -74.000000 42.000000 11.000000
v -74.000000 42.000000 9.000000
v -74.000000 42.000000 41.000000
v -74.000000 42.000000 43.000000
v -74.000000 42.000000 48.000000
v -74.000000 42.000000 4.000000
v -81.000000 42.000000 11.000000
v -81.000000 42.000000 9.000000
v -81.000000 42.000000 41.000000
v -81.000000 42.000000 43.000000
v -81.000000 42.000000 48.000000
v -81.000000 42.000000 4.000000
vt 0.116198 0.688525
vt 0.099598 0.688525
vt 0.099598 0.672131
vt 0.116198 0.672131
vt 0.182010 0.181168
vt 0.207597 0.181168
vt 0.207597 0.349737
vt 0.182010 0.349737
vt 0.182009 0.012600
vt 0.207597 0.012600
vt 0.258771 0.349737
vt 0.233184 0.349737
vt 0.233184 0.181168
vt 0.258771 0.181168
vt 0.081952 0.016688
vt 0.106775 0.012600
vt 0.106775 0.186356
vt 0.081952 0.190445
vt 0.057801 0.012600
vt 0.081952 0.018169
vt 0.057801 0.191195
vt 0.033650 0.185626
vt 0.182597 0.672131
vt 0.199197 0.672131
vt 0.199197 0.688525
vt 0.182597 0.688525
vt 0.233184 0.012600
vt 0.258771 0.012600
vt 0.106775 0.360112
vt 0.081952 0.364201
vt 0.033650 0.364221
vt 0.009499 0.358653
vt 0.361121 0.349737
vt 0.335534 0.349737
vt 0.335534 0.012600
vt 0.361121 0.012600
vt 1.000000 0.819672
vt 0.983400 0.819672
vt 0.983400 0.803279
vt 1.000000 0.803279
vt 0.182009 0.349737
vt 0.156422 0.349737
vt 0.156422 0.012600
vt 0.182009 0.012600
vt 0.258771 0.012600
vt 0.284359 0.012600
vt 0.284359 0.349737
vt 0.258772 0.349737
vt 0.309946 0.012600
vt 0.335534 0.012600
vt 0.335534 0.349737
vt 0.309946 0.349737
vt 0.309946 0.181168
vt 0.284359 0.181168
vt 0.284359 0.012600
vt 0.309946 0.012600
vt 0.182597 0.688525
vt 0.165997 0.688525
vt 0.165997 0.672131
vt 0.182597 0.672131
vt 0.156422 0.186356
vt 0.131599 0.190445
vt 0.131599 0.016688
vt 0.156422 0.012600
vt 0.131599 0.190445
vt 0.106775 0.186356
vt 0.106775 0.012600
vt 0.131599 0.016688
vt 0.233184 0.181168
vt 0.207597 0.181168
vt 0.207597 0.012600
vt 0.233184 0.012600
vt 0.309946 0.349737
vt 0.284359 0.349737
vt 0.156422 0.360113
vt 0.131599 0.364201
vt 0.131599 0.364201
vt 0.106775 0.360112
vt 0.233184 0.349737
vt 0.207597 0.349737
vt 0.089734 0.867414
vt 0.067202 0.867414
vt 0.067202 0.529436
vt 0.089734 0.529436
vt 0.934678 0.450575
vt 0.934678 0.506904
vt 0.934678 0.529436
vt 0.934678 0.867413
vt 0.934678 0.889945
vt 0.934678 0.946275
vt 0.991008 0.946275
vt 0.991008 0.889946
vt 0.991008 0.867414
vt 0.991008 0.529436
vt 0.991008 0.506904
vt 0.991008 0.450575
vt 0.089734 0.506905
vt 0.067202 0.506905
vt 0.067202 0.450575
vt 0.089734 0.450575
vt 0.067202 0.889946
vt 0.089734 0.889946
vt 0.089734 0.946276
vt 0.067202 0.946276
vt 0.010872 0.946275
vt 0.010872 0.889946
vt 0.010872 0.867414
vt 0.010872 0.529436
vt 0.010872 0.506905
vt 0.010872 0.450575
vt 0.406693 0.672131
vt 0.406693 0.655738
vt 0.423293 0.655738
vt 0.423293 0.672131
vt 0.672288 0.672131
vt 0.672288 0.655738
vt 0.688888 0.655738
vt 0.688888 0.672131
vt 0.912146 0.450575
vt 0.912146 0.506904
vt 0.481991 0.007360
vt 0.508116 0.007360
vt 0.508116 0.179466
vt 0.481991 0.179466
vt 0.912146 0.889945
vt 0.912146 0.946275
vt 0.912146 0.529436
vt 0.912146 0.867414
vt 0.481991 0.351573
vt 0.455867 0.351573
vt 0.455867 0.179466
vt 0.481991 0.179466
vt 0.455867 0.007360
vt 0.481991 0.007360
vt 0.508116 0.007360
vt 0.534240 0.007360
vt 0.534240 0.179466
vt 0.508116 0.179466
vt 0.352149 0.011534
vt 0.377494 0.007360
vt 0.377493 0.184763
vt 0.352149 0.188937
vt 0.276803 0.007360
vt 0.301460 0.013045
vt 0.276803 0.189703
vt 0.252145 0.184018
vt 0.099598 0.688525
vt 0.082999 0.688525
vt 0.082999 0.672131
vt 0.099598 0.672131
vt 0.252145 0.366361
vt 0.227487 0.360676
vt 0.534240 0.351573
vt 0.508116 0.351573
vt 0.377493 0.362166
vt 0.352149 0.366340
vt 0.429742 0.179466
vt 0.455867 0.179466
vt 0.455867 0.351573
vt 0.429742 0.351573
vt 0.326805 0.007360
vt 0.352149 0.011534
vt 0.352149 0.188937
vt 0.326805 0.184763
vt 0.301460 0.011534
vt 0.326805 0.007360
vt 0.326805 0.184763
vt 0.301460 0.188937
vt 0.429742 0.007360
vt 0.455867 0.007360
vt 0.149397 0.688525
vt 0.149397 0.672131
vt 0.165997 0.672131
vt 0.165997 0.688525
vt 0.352149 0.366340
vt 0.326805 0.362166
vt 0.508116 0.351573
vt 0.481991 0.351573
vt 0.326805 0.362166
vt 0.301460 0.366340
vt 0.429742 0.351573
vt 0.403618 0.351573
vt 0.403618 0.007360
vt 0.429742 0.007360
vt 0.082999 0.688525
vt 0.066399 0.688525
vt 0.066399 0.672131
vt 0.082999 0.672131
vt 0.560365 0.351573
vt 0.534240 0.351573
vt 0.534240 0.007360
vt 0.560364 0.007360
vt 0.560365 0.007360
vt 0.586489 0.007360
vt 0.586489 0.351572
vt 0.560365 0.351572
vt 0.377494 0.007360
vt 0.403618 0.007360
vt 0.403618 0.351573
vt 0.377494 0.351573
vt 0.917320 0.512084
vt 0.940305 0.512084
vt 0.940305 0.489099
vt 0.917320 0.489099
vt 0.940305 0.856862
vt 0.917320 0.856862
vt 0.917320 0.879848
vt 0.940305 0.879848
vt 0.055374 0.937311
vt 0.055374 0.879848
vt 0.055374 0.856862
vt 0.055374 0.512084
vt 0.055374 0.489099
vt 0.055374 0.431636
vt -0.002089 0.431636
vt -0.002089 0.489099
vt -0.002089 0.512084
vt -0.002089 0.856862
vt -0.002089 0.879847
vt -0.002089 0.937311
vt 0.940305 0.937311
vt 0.917320 0.937311
vt 0.917320 0.431636
vt 0.940305 0.431636
vt 0.997768 0.431636
vt 0.997768 0.489099
vt 0.997768 0.512084
vt 0.997769 0.856862
vt 0.997769 0.879848
vt 0.997769 0.937311
vt 0.078359 0.489099
vt 0.078359 0.512085
vt 0.078359 0.856862
vt 0.078359 0.879847
vt 0.078359 0.937311
vt 0.078359 0.431636
vt 0.055755 0.581253
vt 0.055755 0.558265
vt -0.001714 0.558265
vt -0.001714 0.581253
vt 0.078743 0.581253
vt 0.078743 0.558265
vt 0.917798 0.581253
vt 0.917798 0.558265
vt 0.940786 0.558265
vt 0.940786 0.581253
vt 0.998256 0.558265
vt 0.998256 0.581253
vt 0.313266 0.364766
vt 0.296666 0.364766
vt 0.296666 0.323783
vt 0.313266 0.323783
vt 0.296666 0.307389
vt 0.313266 0.307389
vt 0.296666 0.061488
vt 0.313266 0.061488
vt 0.296666 0.045094
vt 0.313266 0.045094
vt 0.296666 0.004111
vt 0.313266 0.004111
vt 0.999985 0.677186
vt 0.999985 0.654198
vt 0.942515 0.654198
vt 0.942515 0.677186
vt 0.919528 0.654198
vt 0.919528 0.677186
vt 0.080473 0.677186
vt 0.080473 0.654198
vt 0.057485 0.677186
vt 0.057485 0.654198
vt 0.000015 0.677186
vt 0.000015 0.654198
vt 0.000070 0.438210
vt 0.022539 0.438210
vt 0.022539 0.494382
vt 0.000070 0.494382
vt 0.000070 0.415741
vt 0.022539 0.415741
vt 0.000071 0.056242
vt 0.022540 0.056242
vt 0.022540 0.078711
vt 0.000071 0.078711
vt 0.000071 0.000070
vt 0.022540 0.000070
vn 0.0000 -1.0000 0.0000
vn 0.0000 0.2425 -0.9701
vn 0.0000 -0.2425 0.9701
vn 1.0000 0.0000 0.0000
vn -1.0000 0.0000 0.0000
vn 0.0000 1.0000 0.0000
vn 0.0000 0.0000 -1.0000
vn 0.0000 -0.2425 -0.9701
vn 0.0000 0.2425 0.9701
vn 0.0000 0.0000 1.0000
usemtl Material.001
s off
f 1/1/1 3/2/1 4/3/1 2/4/1
f 8/5/2 7/6/2 11/7/2 12/8/2
f 4/9/2 3/10/2 7/6/2 8/5/2
f 1/11/3 2/12/3 6/13/3 5/14/3
f 2/15/4 4/16/4 8/17/4 6/18/4
f 3/19/5 1/20/5 5/21/5 7/22/5
f 9/23/6 10/24/6 12/25/6 11/26/6
f 5/14/3 6/13/3 10/27/3 9/28/3
f 6/18/4 8/17/4 12/29/4 10/30/4
f 7/22/5 5/21/5 9/31/5 11/32/5
f 6/33/6 5/34/6 15/35/6 16/36/6
f 16/37/7 15/38/7 17/39/7 18/40/7
f 5/41/4 13/42/4 17/43/4 15/44/4
f 14/45/5 6/46/5 16/47/5 18/48/5
f 13/49/1 14/50/1 18/51/1 17/52/1
f 16/53/8 15/54/8 21/55/8 22/56/8
f 22/57/6 21/58/6 23/59/6 24/60/6
f 15/61/5 19/62/5 23/63/5 21/64/5
f 20/65/4 16/66/4 22/67/4 24/68/4
f 19/69/9 20/70/9 24/71/9 23/72/9
f 15/54/8 16/53/8 26/73/8 25/74/8
f 19/62/5 15/61/5 25/75/5 27/76/5
f 16/66/4 20/65/4 28/77/4 26/78/4
f 20/70/9 19/69/9 27/79/9 28/80/9
f 9/81/1 10/82/1 22/83/1 21/84/1
f 43/85/6 42/86/6 41/87/6 39/88/6 40/89/6 44/90/6 56/91/6 52/92/6 51/93/6 53/94/6 54/95/6 55/96/6
f 23/97/1 24/98/1 34/99/1 33/100/1
f 12/101/1 11/102/1 36/103/1 37/104/1
f 22/83/1 10/82/1 12/101/1 37/104/1 38/105/1 30/106/1 29/107/1 31/108/1 32/109/1 35/110/1 34/99/1 24/98/1
f 40/111/1 46/112/1 45/113/1 39/114/1
f 41/115/1 47/116/1 48/117/1 42/118/1
f 42/86/6 43/85/6 49/119/6 48/120/6
f 47/121/9 41/122/9 65/123/9 67/124/9
f 44/90/6 40/89/6 46/125/6 50/126/6
f 39/88/6 41/87/6 47/127/6 45/128/6
f 39/129/2 45/130/2 60/131/2 58/132/2
f 58/132/2 60/131/2 64/133/2 62/134/2
f 46/135/3 40/136/3 57/137/3 59/138/3
f 40/139/4 39/140/4 58/141/4 57/142/4
f 45/143/5 46/144/5 59/145/5 60/146/5
f 61/147/6 62/148/6 64/149/6 63/150/6
f 60/146/5 59/145/5 63/151/5 64/152/5
f 59/138/3 57/137/3 61/153/3 63/154/3
f 57/142/4 58/141/4 62/155/4 61/156/4
f 66/157/8 68/158/8 72/159/8 70/160/8
f 41/161/4 42/162/4 66/163/4 65/164/4
f 48/165/5 47/166/5 67/167/5 68/168/5
f 42/169/8 48/170/8 68/158/8 66/157/8
f 69/171/6 70/172/6 72/173/6 71/174/6
f 65/164/4 66/163/4 70/175/4 69/176/4
f 67/124/9 65/123/9 69/177/9 71/178/9
f 68/168/5 67/167/5 71/179/5 72/180/5
f 67/181/5 74/182/5 78/183/5 76/184/5
f 75/185/10 76/186/10 78/187/10 77/188/10
f 74/189/1 73/190/1 77/191/1 78/192/1
f 65/193/6 67/194/6 76/195/6 75/196/6
f 73/197/4 65/198/4 75/199/4 77/200/4
f 47/127/1 45/128/1 46/125/1 50/126/1 36/103/1 11/102/1 9/81/1 21/84/1 23/97/1 33/100/1 49/119/1 48/120/1
f 79/201/6 80/202/6 82/203/6 81/204/6
f 84/205/6 83/206/6 85/207/6 86/208/6
f 79/201/1 80/202/1 84/205/1 83/206/1
f 101/209/6 100/210/6 99/211/6 97/212/6 98/213/6 102/214/6 114/215/6 110/216/6 109/217/6 111/218/6 112/219/6 113/220/6
f 85/207/1 86/208/1 92/221/1 91/222/1
f 82/203/1 81/204/1 94/223/1 95/224/1
f 84/205/1 80/202/1 82/203/1 95/224/1 96/225/1 88/226/1 87/227/1 89/228/1 90/229/1 93/230/1 92/221/1 86/208/1
f 98/213/1 104/231/1 103/232/1 97/212/1
f 99/211/1 105/233/1 106/234/1 100/210/1
f 100/210/6 101/209/6 107/235/6 106/234/6
f 102/214/6 98/213/6 104/231/6 108/236/6
f 97/212/6 99/211/6 105/233/6 103/232/6
f 105/233/1 103/232/1 104/231/1 108/236/1 94/223/1 81/204/1 79/201/1 83/206/1 85/207/1 91/222/1 107/235/1 106/234/1
f 37/237/7 95/238/7 96/239/7 38/240/7
f 36/241/7 94/242/7 95/238/7 37/237/7
f 50/243/7 108/244/7 94/242/7 36/241/7
f 50/243/10 108/244/10 102/245/10 44/246/10
f 44/246/10 102/245/10 114/247/10 56/248/10
f 56/249/4 114/250/4 110/251/4 52/252/4
f 52/252/4 110/251/4 109/253/4 51/254/4
f 51/254/4 109/253/4 111/255/4 53/256/4
f 53/256/4 111/255/4 112/257/4 54/258/4
f 54/258/4 112/257/4 113/259/4 55/260/4
f 55/261/7 113/262/7 101/263/7 43/264/7
f 43/264/7 101/263/7 107/265/7 49/266/7
f 33/267/10 91/268/10 107/265/10 49/266/10
f 34/269/10 92/270/10 91/268/10 33/267/10
f 35/271/10 93/272/10 92/270/10 34/269/10
f 32/273/4 90/274/4 93/275/4 35/276/4
f 31/277/4 89/278/4 90/274/4 32/273/4
f 30/279/4 88/280/4 87/281/4 29/282/4
f 38/283/4 96/284/4 88/280/4 30/279/4
f 29/282/4 87/281/4 89/278/4 31/277/4
