# Blender v2.80 (sub 75) OBJ File: ''
# www.blender.org
mtllib Start Tower Rim.mtl
o Cube.001
v -1.600000 11.000000 -1.515615
v -2.000000 11.000000 -1.894518
v -1.515615 11.000000 -1.600000
v -1.515615 11.000000 1.600000
v -2.000000 11.000000 1.894518
v -1.600000 11.000000 1.515615
v 0.894299 6.000000 -1.000000
v 1.000000 6.000000 -0.894299
v 0.894518 0.000000 -1.000000
v 1.000000 0.000000 -0.894518
v 1.000000 6.000000 0.894299
v 0.894299 6.000000 1.000000
v 1.000000 0.000000 0.894518
v 0.894518 0.000000 1.000000
v -1.000000 6.000000 -0.894299
v -0.894299 6.000000 -1.000000
v -1.000000 0.000000 -0.894518
v -0.894518 0.000000 -1.000000
v -0.894299 6.000000 1.000000
v -1.000000 6.000000 0.894299
v -0.894518 0.000000 1.000000
v -1.000000 0.000000 0.894518
v 2.000000 7.000000 1.894299
v 1.894299 7.000000 2.000000
v -1.894299 7.000000 2.000000
v -2.000000 7.000000 1.894299
v 1.894299 7.000000 -2.000000
v 2.000000 7.000000 -1.894299
v -2.000000 7.000000 -1.894299
v -1.894299 7.000000 -2.000000
v 1.894518 8.000000 2.000000
v -1.894518 8.000000 2.000000
v 1.894518 8.000000 -2.000000
v -1.894518 8.000000 -2.000000
v 1.515615 11.000000 -1.600000
v 1.515615 11.000000 1.600000
v 1.600000 11.000000 1.515615
v 2.000000 11.000000 1.894518
v 1.600000 11.000000 -1.515615
v 2.000000 11.000000 -1.894518
v -1.799793 11.000000 -1.900000
v -1.894518 10.900000 -2.000000
v -1.965229 11.000000 -1.929289
v -1.894518 10.900000 2.000000
v -1.799792 11.000000 1.900000
v -1.965229 11.000000 1.929289
v 1.894518 10.900000 -2.000000
v 1.799792 11.000000 -1.900000
v 1.965229 11.000000 -1.929289
v 1.799793 11.000000 1.900000
v 1.894518 10.900000 2.000000
v 1.965229 11.000000 1.929289
v 1.515615 8.100000 -1.600000
v 1.600000 8.000000 -1.515615
v -1.600000 8.000000 -1.515615
v -1.515615 8.100000 -1.600000
v -1.600000 8.100000 -1.515615
v -1.600000 8.000000 -1.377872
v -1.600000 8.000000 -1.515615
v -2.000000 8.100000 -1.894518
v -1.929289 8.000000 -1.965229
v -2.000000 7.900000 -1.894496
v 1.600000 8.000000 -1.377872
v 1.600000 8.100000 -1.515615
v 1.600000 8.000000 -1.515615
v -1.600000 8.000000 1.377872
v -1.600000 8.100000 1.515615
v -1.529289 8.000000 1.586325
v -1.515615 8.100000 1.600000
v -1.600000 8.000000 1.515615
v 1.600000 8.000000 1.515615
v 1.515615 8.100000 1.600000
v 1.600000 8.100000 1.515615
v 1.600000 8.000000 1.377872
v 1.529289 8.000000 1.586325
v 2.000000 8.100000 1.894518
v 1.929289 8.000000 1.965229
v 2.000000 7.900000 1.894496
v -2.000000 8.100000 1.894518
v -2.000000 7.900000 1.894496
v -1.929289 8.000000 1.965229
v 2.000000 8.100000 -1.894518
v 2.000000 7.900000 -1.894496
v 1.929289 8.000000 -1.965229
v -2.000000 7.900000 -1.894496
v -1.900000 8.000000 -1.662050
v -2.000000 8.058749 -1.837699
v 2.000000 7.900000 1.894496
v 1.900000 8.000000 1.662050
v 2.000000 8.058749 1.837699
v -1.900000 8.000000 1.662050
v -2.000000 7.900000 1.894496
v -2.000000 8.058749 1.837699
v 1.900000 8.000000 -1.662050
v 2.000000 7.900000 -1.894496
v 2.000000 8.058749 -1.837699
vt 0.625000 0.506593
vt 0.625000 0.497754
vt 0.625000 0.493407
vt 0.625000 0.493407
vt 0.625000 0.502246
vt 0.625000 0.506593
vt 0.375000 0.763185
vt 0.388185 0.750000
vt 0.611815 0.750000
vt 0.625000 0.763185
vt 0.625000 0.986815
vt 0.611815 1.000000
vt 0.388185 1.000000
vt 0.375000 0.986815
vt 0.375000 0.513213
vt 0.125000 0.513185
vt 0.125000 0.500000
vt 0.375000 0.500000
vt 0.375000 0.486815
vt 0.625000 0.486787
vt 0.625000 0.513213
vt 0.375000 0.513185
vt 0.625000 0.263213
vt 0.375000 0.263185
vt 0.375000 0.250000
vt 0.625000 0.250000
vt 0.875000 0.513213
vt 0.625000 0.513185
vt 0.625000 0.500000
vt 0.875000 0.500000
vt 0.625000 0.736787
vt 0.625000 0.743394
vt 0.625000 0.750000
vt 0.625000 0.750000
vt 0.375000 0.506606
vt 0.375000 0.500000
vt 0.375000 0.736787
vt 0.375000 0.743394
vt 0.375000 0.750000
vt 0.375000 0.750000
vt 0.625000 0.506606
vt 0.625000 0.493394
vt 0.375000 0.750000
vt 0.375000 0.747827
vt 0.375000 0.743407
vt 0.375000 0.743407
vt 0.375000 0.745581
vt 0.375000 0.750000
vt 0.375000 0.743406
vt 0.375000 0.739856
vt 0.375000 0.743406
vt 0.625000 0.750000
vt 0.625000 0.747827
vt 0.625000 0.743407
vt 0.625000 0.743407
vt 0.625000 0.745581
vt 0.625000 0.750000
vt 0.375000 0.506593
vt 0.375000 0.502173
vt 0.375000 0.500000
vt 0.375000 0.500000
vt 0.375000 0.504419
vt 0.375000 0.506593
vt 0.381593 0.000000
vt 0.375000 0.006593
vt 0.375000 0.006593
vt 0.375000 0.006593
vt 0.375000 0.006593
vt 0.381593 0.000000
vt 0.618407 0.250000
vt 0.618407 0.250000
vt 0.625000 0.506593
vt 0.625000 0.506593
vt 0.375000 0.500000
vt 0.375000 0.500000
vt 0.375000 0.506593
vt 0.375000 0.506594
vt 0.625000 0.750000
vt 0.625000 0.743407
vt 0.625000 0.750000
vt 0.625000 0.517354
vt 0.625000 0.515740
vt 0.625000 0.510144
vt 0.625000 0.493407
vt 0.625000 0.493407
vt 0.375000 0.743407
vt 0.375000 0.743407
vt 0.381593 0.250000
vt 0.381593 0.250000
vt 0.625000 0.743406
vt 0.625000 0.006593
vt 0.625000 0.006593
vt 0.625000 0.006593
vt 0.618407 0.000000
vt 0.618407 0.000000
vt 0.625000 0.006593
vt 0.375000 0.750000
vt 0.375000 0.750000
vt 0.625000 0.506594
vt 0.625000 0.487487
vt 0.875000 0.743407
vt 0.875000 0.737487
vt 0.875000 0.743407
vt 0.625000 0.256593
vt 0.625000 0.256593
vt 0.875000 0.506593
vt 0.875000 0.743407
vt 0.875000 0.506593
vt 0.625000 0.006593
vt 0.625000 0.739856
vt 0.625000 0.734260
vt 0.625000 0.732646
vt 0.625000 0.743407
vt 0.375000 0.017354
vt 0.625000 0.232646
vt 0.625000 0.243407
vt 0.619476 0.248932
vt 0.375000 0.243407
vt 0.375000 0.243407
vt 0.380524 0.248932
vt 0.375000 0.734260
vt 0.375000 0.732646
vt 0.375000 0.517354
vt 0.375000 0.515740
vt 0.375000 0.510144
vt 0.375000 0.506593
vt 0.625000 0.506593
vt 0.625000 0.506594
vt 0.375000 0.506593
vt 0.375000 0.506594
vt 0.375000 0.243407
vt 0.625000 0.243407
vt 0.625000 0.743406
vt 0.625000 0.728878
vt 0.375000 0.728878
vt 0.625000 0.512536
vt 0.375000 0.512536
vn -0.7071 0.0000 0.7071
vn 0.0000 -1.0000 0.0000
vn 0.7071 0.0000 -0.7071
vn 0.7071 0.0000 0.7071
vn -0.7071 0.0000 -0.7071
vn -0.4082 -0.8165 -0.4082
vn 0.4082 -0.8165 -0.4082
vn 0.4082 -0.8165 0.4082
vn -0.4082 -0.8165 0.4082
vn 0.8746 -0.0001 0.4849
vn 0.0000 1.0000 -0.0000
vn 0.7071 -0.0002 -0.7071
vn -0.4863 0.7071 -0.5134
vn 0.7071 -0.0002 0.7071
vn -0.7071 -0.0002 -0.7071
vn -0.7071 -0.0002 0.7071
vn 0.1348 0.6339 -0.7616
vn 0.1348 0.6339 0.7616
vn -0.1348 0.6339 -0.7616
vn -0.1348 0.6339 0.7616
vn 0.0000 0.7071 0.7071
vn 0.0000 0.7071 -0.7071
vn 0.0000 0.6449 0.7643
vn 1.0000 0.0000 0.0000
vn -0.4863 0.7071 0.5134
vn -1.0000 0.0000 0.0000
vn 0.8660 0.4046 -0.2938
vn -0.8660 0.4046 -0.2938
vn 0.4863 0.7071 -0.5134
vn 0.4863 0.7071 0.5134
vn -0.8746 -0.0001 0.4849
vn 0.8746 -0.0001 -0.4849
vn 0.0000 0.6449 -0.7643
vn -0.8799 -0.1601 0.4474
vn 0.8799 -0.1601 -0.4474
vn -0.8799 -0.1601 -0.4474
vn 0.8799 -0.1601 0.4474
vn 0.7071 0.7071 0.0000
vn -0.7071 0.7071 0.0000
vn -0.8746 -0.0001 -0.4849
vn -0.5065 0.6977 -0.5065
vn -0.5065 -0.6977 0.5065
usemtl Material
s off
f 79/1/1 81/2/1 32/3/1 44/4/1 46/5/1 5/6/1
f 17/7/2 18/8/2 9/9/2 10/10/2 13/11/2 14/12/2 21/13/2 22/14/2
f 8/15/3 10/16/3 9/17/3 7/18/3
f 21/19/1 19/20/1 20/21/1 22/22/1
f 12/23/4 14/24/4 13/25/4 11/26/4
f 16/27/5 18/28/5 17/29/5 15/30/5
f 15/31/6 29/32/6 30/33/6 16/34/6
f 28/35/7 8/15/7 7/18/7 27/36/7
f 11/37/8 23/38/8 24/39/8 12/40/8
f 26/41/9 20/21/9 19/20/9 25/42/9
f 31/43/4 77/44/4 76/45/4 38/46/4 52/47/4 51/48/4
f 88/49/10 90/50/10 76/45/10 77/44/10 78/51/10
f 34/52/5 61/53/5 60/54/5 2/55/5 43/56/5 42/57/5
f 82/58/3 84/59/3 33/60/3 47/61/3 49/62/3 40/63/3
f 53/64/1 54/65/1 65/66/1 64/67/1 39/68/1 35/69/1
f 4/70/3 69/71/3 67/72/3 6/73/3
f 40/63/11 49/62/11 48/74/11 35/75/11 39/76/11
f 84/59/12 83/77/12 28/35/12 27/36/12 33/60/12
f 41/78/11 43/56/11 2/55/11 1/79/11 3/80/11
f 66/81/13 91/82/13 93/83/13 79/1/13 67/72/13
f 5/6/11 46/5/11 45/84/11 4/85/11 6/73/11
f 37/86/5 73/87/5 72/88/5 36/89/5
f 23/38/14 78/51/14 77/44/14 31/43/14 24/39/14
f 29/32/15 62/90/15 61/53/15 34/52/15 30/33/15
f 57/91/4 59/92/4 55/93/4 56/94/4 3/95/4 1/96/4
f 50/97/11 52/47/11 38/46/11 37/86/11 36/98/11
f 81/2/16 80/99/16 26/41/16 25/42/16 32/3/16
f 41/78/17 42/57/17 43/56/17
f 44/4/18 45/100/18 46/5/18
f 47/101/19 48/102/19 49/103/19
f 50/97/20 51/48/20 52/47/20
f 50/104/21 45/84/21 44/4/21 51/105/21
f 41/106/22 48/107/22 47/101/22 42/108/22
f 55/93/23 54/65/23 53/64/23 56/94/23
f 57/91/24 58/109/24 59/92/24
f 87/110/25 86/111/25 58/112/25 57/113/25 60/54/25
f 63/114/26 64/67/26 65/66/26
f 66/115/27 67/116/27 68/117/27
f 73/118/28 74/119/28 75/120/28
f 73/87/29 76/45/29 90/50/29 89/121/29 74/122/29
f 63/123/30 94/124/30 96/125/30 82/58/30 64/126/30
f 79/1/31 93/127/31 92/128/31 80/99/31 81/2/31
f 82/58/32 96/129/32 95/130/32 83/77/32 84/59/32
f 71/131/33 70/132/33 69/71/33 72/88/33
f 85/133/34 86/134/34 87/110/34
f 88/49/35 89/135/35 90/50/35
f 91/82/36 92/136/36 93/83/36
f 94/124/37 95/137/37 96/125/37
f 88/49/38 95/130/38 94/124/38 89/121/38
f 85/133/39 92/128/39 91/82/39 86/111/39
f 85/133/40 87/110/40 60/54/40 61/53/40 62/90/40
f 73/118/41 74/119/41 72/88/41
f 67/72/42 66/81/42 69/71/42
