# Blender v2.80 (sub 75) OBJ File: ''
# www.blender.org
mtllib arrow.mtl
o Cube.001
v 0.450000 1.000000 -5.000000
v 0.500000 0.900000 -5.000000
v 0.500000 1.100000 -5.000000
v 0.500000 -0.900000 -5.000000
v 0.450000 -1.000000 -5.000000
v 0.500000 -1.100000 -5.000000
v 0.500000 0.900000 1.000000
v 0.450000 1.000000 1.000000
v 0.450000 -1.000000 1.000000
v 0.500000 -0.900000 1.000000
v 0.450000 -2.000000 -5.000000
v 0.500000 -1.858579 -5.000000
v 0.500000 -1.900000 -5.000000
v 0.500000 1.858579 -5.000000
v 0.450000 2.000000 -5.000000
v 0.500000 1.900000 -5.000000
v 0.450000 0.000000 -7.000000
v 0.500000 0.000000 -6.858579
vt 0.387500 0.000000
vt 0.375000 0.000000
vt 0.375000 0.000000
vt 0.375000 0.500000
vt 0.375000 0.500000
vt 0.375000 0.500000
vt 0.612500 0.750000
vt 0.629419 0.750000
vt 0.628125 0.750000
vt 0.375000 0.500000
vt 0.375000 0.500000
vt 0.375000 0.500000
vt 0.387500 0.250000
vt 0.375000 0.250000
vt 0.612500 1.000000
vt 0.612500 0.750000
vt 0.625000 0.750000
vt 0.625000 1.000000
vt 0.750000 0.737500
vt 0.745581 0.750000
vt 0.366161 0.500000
vt 0.250000 0.500000
vt 0.250000 0.500000
vn 0.0000 0.0000 1.0000
vn 0.0000 0.0000 -1.0000
vn 0.8944 0.4472 0.0000
vn 0.8944 -0.4472 0.0000
vn 0.8944 -0.3162 -0.3162
vn 0.8944 0.3162 -0.3162
usemtl Material
s off
f 1/1/1 2/2/1 3/3/1
f 4/4/1 5/5/1 6/6/1
f 11/7/2 12/8/2 13/9/2
f 14/10/2 15/11/2 16/12/2
f 1/1/3 8/13/3 7/14/3 2/2/3
f 9/15/4 5/16/4 4/17/4 10/18/4
f 11/7/5 17/19/5 18/20/5 12/8/5
f 14/21/6 18/22/6 17/23/6 15/11/6
