# Blender v2.82 (sub 7) OBJ File: '3Dprinter.blend'
# www.blender.org
mtllib bar.mtl
o Plane.002
v 0.151601 12.301659 9.512500
v 0.151601 12.301659 10.000000
v 0.151601 11.677674 10.000000
v 0.151601 11.677674 9.512500
v 0.749061 12.301659 9.512500
v 0.749061 12.301659 10.000000
v 0.749061 11.677674 10.000000
v 0.749061 11.677674 9.512500
v 0.151601 12.301659 -9.987500
v 0.151601 11.677674 -9.987500
v 0.749061 12.301659 -9.987500
v 0.749061 11.677674 -9.987500
v 0.151601 11.677674 -10.487500
v 0.749061 11.677674 -10.487500
v 0.749061 12.301659 -10.487500
v 0.151601 12.301659 -10.487500
v -1.348400 12.301659 -9.987500
v -1.348400 11.677674 -9.987500
v -1.348400 12.301659 -10.487500
v -1.348400 11.677674 -10.487500
v 0.749061 13.801659 -9.987500
v 0.151601 13.801659 -9.987500
v 0.749061 13.801659 -10.487500
v 0.151601 13.801659 -10.487500
v 0.151601 10.677673 -9.987500
v 0.749061 10.677673 -9.987500
v 0.151601 10.677673 -10.487500
v 0.749061 10.677673 -10.487500
v 0.151601 11.677674 10.500000
v 0.151601 12.301659 10.500000
v 0.749061 11.677674 10.500000
v 0.749061 12.301659 10.500000
v -1.348400 11.677674 10.000000
v -1.348400 12.301659 10.000000
v -1.348400 11.677674 10.500000
v -1.348400 12.301659 10.500000
v 0.151601 13.801659 10.000000
v 0.749061 13.801659 10.000000
v 0.151601 13.801659 10.500000
v 0.749061 13.801659 10.500000
v 0.749061 10.677673 10.000000
v 0.151601 10.677673 10.000000
v 0.749061 10.677673 10.500000
v 0.151601 10.677673 10.500000
v 0.460352 11.496609 10.000051
v 0.460352 11.496609 9.500051
v 0.460352 13.996609 9.500051
v 0.460352 13.996609 10.000051
v 0.710352 13.929620 9.500051
v 0.710352 13.929620 10.000051
v 0.893365 13.746607 9.500051
v 0.893365 13.746607 10.000051
v 0.960352 13.496608 9.500051
v 0.960352 13.496608 10.000051
v 0.893365 13.246608 9.500051
v 0.893365 13.246608 10.000051
v 0.710352 13.063595 9.500051
v 0.710352 13.063595 10.000051
v 0.460352 12.996607 9.500051
v 0.460352 12.996607 10.000051
v 0.210353 13.063595 9.500051
v 0.210353 13.063595 10.000051
v 0.027340 13.246608 9.500051
v 0.027340 13.246608 10.000051
v -0.039648 13.496608 9.500051
v -0.039648 13.496608 10.000051
v 0.027340 13.746607 9.500051
v 0.027340 13.746607 10.000051
v 0.210352 13.929620 9.500051
v 0.210352 13.929620 10.000051
v 0.710352 11.429620 9.500051
v 0.710352 11.429620 10.000051
v 0.893365 11.246607 9.500051
v 0.893365 11.246607 10.000051
v 0.960352 10.996608 9.500051
v 0.960352 10.996608 10.000051
v 0.893365 10.746608 9.500051
v 0.893365 10.746608 10.000051
v 0.710352 10.563595 9.500051
v 0.710352 10.563595 10.000051
v 0.460352 10.496607 9.500051
v 0.460352 10.496607 10.000051
v 0.210353 10.563595 9.500051
v 0.210353 10.563595 10.000051
v 0.027340 10.746608 9.500051
v 0.027340 10.746608 10.000051
v -0.039648 10.996608 9.500051
v -0.039648 10.996608 10.000051
v 0.027340 11.246607 9.500051
v 0.027340 11.246607 10.000051
v 0.210352 11.429620 9.500051
v 0.210352 11.429620 10.000051
v -0.939648 12.496609 10.000051
v -0.939648 12.496609 9.500051
v -0.689648 12.429620 9.500051
v -0.689648 12.429620 10.000051
v -0.506635 12.246608 9.500051
v -0.506635 12.246608 10.000051
v -0.439648 11.996608 9.500051
v -0.439648 11.996608 10.000051
v -0.506635 11.746608 9.500051
v -0.506635 11.746608 10.000051
v -0.689648 11.563596 9.500051
v -0.689648 11.563596 10.000051
v -0.939648 11.496607 9.500051
v -0.939648 11.496607 10.000051
v -1.189647 11.563596 9.500051
v -1.189647 11.563596 10.000051
v -1.372660 11.746608 9.500051
v -1.372660 11.746608 10.000051
v -1.439648 11.996608 9.500051
v -1.439648 11.996608 10.000051
v -1.372660 12.246608 9.500051
v -1.372660 12.246608 10.000051
v -1.189648 12.429620 9.500051
v -1.189648 12.429620 10.000051
v 0.460352 11.496609 -9.499949
v 0.460352 11.496609 -9.999949
v 0.460352 13.996609 -9.999949
v 0.460352 13.996609 -9.499949
v 0.710352 13.929620 -9.999949
v 0.710352 13.929620 -9.499949
v 0.893365 13.746607 -9.999949
v 0.893365 13.746607 -9.499949
v 0.960352 13.496608 -9.999949
v 0.960352 13.496608 -9.499949
v 0.893365 13.246608 -9.999949
v 0.893365 13.246608 -9.499949
v 0.710352 13.063595 -9.999949
v 0.710352 13.063595 -9.499949
v 0.460352 12.996607 -9.999949
v 0.460352 12.996607 -9.499949
v 0.210353 13.063595 -9.999949
v 0.210353 13.063595 -9.499949
v 0.027340 13.246608 -9.999949
v 0.027340 13.246608 -9.499949
v -0.039648 13.496608 -9.999949
v -0.039648 13.496608 -9.499949
v 0.027340 13.746607 -9.999949
v 0.027340 13.746607 -9.499949
v 0.210352 13.929620 -9.999949
v 0.210352 13.929620 -9.499949
v 0.710352 11.429620 -9.999949
v 0.710352 11.429620 -9.499949
v 0.893365 11.246607 -9.999949
v 0.893365 11.246607 -9.499949
v 0.960352 10.996608 -9.999949
v 0.960352 10.996608 -9.499949
v 0.893365 10.746608 -9.999949
v 0.893365 10.746608 -9.499949
v 0.710352 10.563595 -9.999949
v 0.710352 10.563595 -9.499949
v 0.460352 10.496607 -9.999949
v 0.460352 10.496607 -9.499949
v 0.210353 10.563595 -9.999949
v 0.210353 10.563595 -9.499949
v 0.027340 10.746608 -9.999949
v 0.027340 10.746608 -9.499949
v -0.039648 10.996608 -9.999949
v -0.039648 10.996608 -9.499949
v 0.027340 11.246607 -9.999949
v 0.027340 11.246607 -9.499949
v 0.210352 11.429620 -9.999949
v 0.210352 11.429620 -9.499949
v -0.939648 12.496609 -9.499949
v -0.939648 12.496609 -9.999949
v -0.689648 12.429620 -9.999949
v -0.689648 12.429620 -9.499949
v -0.506635 12.246608 -9.999949
v -0.506635 12.246608 -9.499949
v -0.439648 11.996608 -9.999949
v -0.439648 11.996608 -9.499949
v -0.506635 11.746608 -9.999949
v -0.506635 11.746608 -9.499949
v -0.689648 11.563596 -9.999949
v -0.689648 11.563596 -9.499949
v -0.939648 11.496607 -9.999949
v -0.939648 11.496607 -9.499949
v -1.189647 11.563596 -9.999949
v -1.189647 11.563596 -9.499949
v -1.372660 11.746608 -9.999949
v -1.372660 11.746608 -9.499949
v -1.439648 11.996608 -9.999949
v -1.439648 11.996608 -9.499949
v -1.372660 12.246608 -9.999949
v -1.372660 12.246608 -9.499949
v -1.189648 12.429620 -9.999949
v -1.189648 12.429620 -9.499949
v 0.749061 11.677674 -1.502491
v 0.749061 12.301659 -1.502491
v 0.151601 12.301659 -1.502491
v 0.151601 11.677674 -1.502491
v 0.749061 11.677674 -2.087963
v 0.151601 12.301659 -2.087963
v 0.749061 12.301659 -2.087963
v 0.151601 11.677674 -2.087963
vt 0.501250 0.024375
vt 0.501250 0.024375
vt 0.501250 0.024375
vt 0.501250 0.024375
vt 0.501250 0.000000
vt 0.501250 0.024375
vt 0.501250 0.024375
vt 0.501250 0.000000
vt 0.501250 0.024375
vt 0.501250 0.024375
vt 0.501250 0.024375
vt 0.501250 0.000000
vt 0.501250 0.024375
vt 0.501250 0.024375
vt 0.501250 0.000000
vt 0.501250 0.024375
vt 0.501250 0.024375
vt 0.501250 0.024375
vt 0.501250 0.024375
vt 0.501250 0.000000
vt 0.501250 0.000000
vt 0.501250 0.000000
vt 0.501250 0.024375
vt 0.501250 0.024375
vt 0.501250 0.024375
vt 0.501250 0.024375
vt 0.501250 0.024375
vt 0.501250 0.024375
vt 0.501250 0.024375
vt 0.501250 0.024375
vt 0.501250 0.024375
vt 0.501250 0.024375
vt 0.501250 0.024375
vt 0.501250 0.024375
vt 0.501250 0.024375
vt 0.501250 0.000000
vt 0.501250 0.000000
vt 0.501250 0.000000
vt 0.501250 0.000000
vt 0.501250 0.000000
vt 0.501250 0.000000
vt 0.501250 0.000000
vt 0.501250 0.000000
vt 0.501250 0.000000
vt 0.501250 0.000000
vt 0.501250 0.000000
vt 0.501250 0.000000
vt 0.501250 0.000000
vt 0.109115 0.065803
vt 0.109115 0.114937
vt 0.100926 0.114937
vt 0.100926 0.065803
vt 0.071773 0.061661
vt 0.059980 0.064820
vt 0.048188 0.061661
vt 0.039556 0.053028
vt 0.036396 0.041236
vt 0.039556 0.029444
vt 0.048188 0.020811
vt 0.059980 0.017652
vt 0.071773 0.020811
vt 0.080405 0.029444
vt 0.083565 0.041236
vt 0.080405 0.053028
vt 0.133682 0.065803
vt 0.133682 0.114937
vt 0.125493 0.114937
vt 0.125493 0.065803
vt 0.109115 0.064820
vt 0.120907 0.061661
vt 0.129539 0.053028
vt 0.132699 0.041236
vt 0.129539 0.029444
vt 0.120907 0.020811
vt 0.109115 0.017652
vt 0.097322 0.020811
vt 0.088690 0.029444
vt 0.085530 0.041236
vt 0.088690 0.053028
vt 0.097322 0.061661
vt 0.059980 0.065803
vt 0.059980 0.114937
vt 0.051791 0.114937
vt 0.051791 0.065803
vt 0.117304 0.114937
vt 0.117304 0.065803
vt 0.092737 0.065803
vt 0.092737 0.114937
vt 0.084547 0.114937
vt 0.084547 0.065803
vt 0.068169 0.065803
vt 0.068169 0.114937
vt 0.109115 0.114937
vt 0.109115 0.065803
vt 0.076358 0.114937
vt 0.076358 0.065803
vt 0.076358 0.065803
vt 0.076358 0.114937
vt 0.100926 0.114937
vt 0.100926 0.065803
vt 0.068169 0.114937
vt 0.068169 0.065803
vt 0.084547 0.065803
vt 0.084547 0.114937
vt 0.092737 0.114937
vt 0.092737 0.065803
vt 0.059980 0.114937
vt 0.059980 0.065803
vt 0.092737 0.065803
vt 0.092737 0.114937
vt 0.084547 0.114937
vt 0.084547 0.065803
vt 0.051791 0.114937
vt 0.051791 0.065803
vt 0.100926 0.065803
vt 0.100926 0.114937
vt 0.076358 0.114937
vt 0.076358 0.065803
vt 0.071773 0.061661
vt 0.059980 0.064820
vt 0.048188 0.061661
vt 0.039556 0.053028
vt 0.036396 0.041236
vt 0.039556 0.029444
vt 0.048188 0.020811
vt 0.059980 0.017652
vt 0.071773 0.020811
vt 0.080405 0.029444
vt 0.083565 0.041236
vt 0.080405 0.053028
vt 0.109115 0.065803
vt 0.109115 0.114937
vt 0.068169 0.114937
vt 0.068169 0.065803
vt 0.109115 0.064820
vt 0.120907 0.061661
vt 0.129539 0.053028
vt 0.132699 0.041236
vt 0.129539 0.029444
vt 0.120907 0.020811
vt 0.109115 0.017652
vt 0.097322 0.020811
vt 0.088690 0.029444
vt 0.085530 0.041236
vt 0.088690 0.053028
vt 0.097322 0.061661
vt 0.117304 0.065803
vt 0.117304 0.114937
vt 0.059980 0.114937
vt 0.059980 0.065803
vt 0.043602 0.065803
vt 0.043602 0.114937
vt 0.035413 0.114937
vt 0.035413 0.065803
vt 0.125493 0.065803
vt 0.125493 0.114937
vt 0.051791 0.114937
vt 0.051791 0.065803
vt 0.071773 0.061661
vt 0.059980 0.064820
vt 0.048188 0.061661
vt 0.039556 0.053028
vt 0.036396 0.041236
vt 0.039556 0.029444
vt 0.048188 0.020811
vt 0.059980 0.017652
vt 0.071773 0.020811
vt 0.080405 0.029444
vt 0.083565 0.041236
vt 0.080405 0.053028
vt 0.133682 0.065803
vt 0.133682 0.114937
vt 0.043602 0.114937
vt 0.043602 0.065803
vt 0.035413 0.114937
vt 0.035413 0.065803
vt 0.109115 0.064820
vt 0.120907 0.061661
vt 0.129539 0.053028
vt 0.132699 0.041236
vt 0.129539 0.029444
vt 0.120907 0.020811
vt 0.109115 0.017652
vt 0.097322 0.020811
vt 0.088690 0.029444
vt 0.085530 0.041236
vt 0.088690 0.053028
vt 0.097322 0.061661
vt 0.117304 0.065803
vt 0.117304 0.114937
vt 0.043602 0.065803
vt 0.043602 0.114937
vt 0.035413 0.114937
vt 0.035413 0.065803
vt 0.125493 0.065803
vt 0.125493 0.114937
vt 0.133682 0.065803
vt 0.133682 0.114937
vt 0.109115 0.065803
vt 0.109115 0.114937
vt 0.100926 0.114937
vt 0.100926 0.065803
vt 0.071773 0.061661
vt 0.059980 0.064820
vt 0.048188 0.061661
vt 0.039556 0.053028
vt 0.036396 0.041236
vt 0.039556 0.029444
vt 0.048188 0.020811
vt 0.059980 0.017652
vt 0.071773 0.020811
vt 0.080405 0.029444
vt 0.083565 0.041236
vt 0.080405 0.053028
vt 0.133682 0.065803
vt 0.133682 0.114937
vt 0.125493 0.114937
vt 0.125493 0.065803
vt 0.109115 0.064820
vt 0.120907 0.061661
vt 0.129539 0.053028
vt 0.132699 0.041236
vt 0.129539 0.029444
vt 0.120907 0.020811
vt 0.109115 0.017652
vt 0.097322 0.020811
vt 0.088690 0.029444
vt 0.085530 0.041236
vt 0.088690 0.053028
vt 0.097322 0.061661
vt 0.059980 0.065803
vt 0.059980 0.114937
vt 0.051791 0.114937
vt 0.051791 0.065803
vt 0.117304 0.114937
vt 0.117304 0.065803
vt 0.092737 0.065803
vt 0.092737 0.114937
vt 0.084547 0.114937
vt 0.084547 0.065803
vt 0.068169 0.065803
vt 0.068169 0.114937
vt 0.109115 0.114937
vt 0.109115 0.065803
vt 0.076358 0.114937
vt 0.076358 0.065803
vt 0.076358 0.065803
vt 0.076358 0.114937
vt 0.100926 0.114937
vt 0.100926 0.065803
vt 0.068169 0.114937
vt 0.068169 0.065803
vt 0.084547 0.065803
vt 0.084547 0.114937
vt 0.092737 0.114937
vt 0.092737 0.065803
vt 0.059980 0.114937
vt 0.059980 0.065803
vt 0.092737 0.065803
vt 0.092737 0.114937
vt 0.084547 0.114937
vt 0.084547 0.065803
vt 0.051791 0.114937
vt 0.051791 0.065803
vt 0.100926 0.065803
vt 0.100926 0.114937
vt 0.076358 0.114937
vt 0.076358 0.065803
vt 0.071773 0.061661
vt 0.059980 0.064820
vt 0.048188 0.061661
vt 0.039556 0.053028
vt 0.036396 0.041236
vt 0.039556 0.029444
vt 0.048188 0.020811
vt 0.059980 0.017652
vt 0.071773 0.020811
vt 0.080405 0.029444
vt 0.083565 0.041236
vt 0.080405 0.053028
vt 0.109115 0.065803
vt 0.109115 0.114937
vt 0.068169 0.114937
vt 0.068169 0.065803
vt 0.109115 0.064820
vt 0.120907 0.061661
vt 0.129539 0.053028
vt 0.132699 0.041236
vt 0.129539 0.029444
vt 0.120907 0.020811
vt 0.109115 0.017652
vt 0.097322 0.020811
vt 0.088690 0.029444
vt 0.085530 0.041236
vt 0.088690 0.053028
vt 0.097322 0.061661
vt 0.117304 0.065803
vt 0.117304 0.114937
vt 0.059980 0.114937
vt 0.059980 0.065803
vt 0.043602 0.065803
vt 0.043602 0.114937
vt 0.035413 0.114937
vt 0.035413 0.065803
vt 0.125493 0.065803
vt 0.125493 0.114937
vt 0.051791 0.114937
vt 0.051791 0.065803
vt 0.071773 0.061661
vt 0.059980 0.064820
vt 0.048188 0.061661
vt 0.039556 0.053028
vt 0.036396 0.041236
vt 0.039556 0.029444
vt 0.048188 0.020811
vt 0.059980 0.017652
vt 0.071773 0.020811
vt 0.080405 0.029444
vt 0.083565 0.041236
vt 0.080405 0.053028
vt 0.133682 0.065803
vt 0.133682 0.114937
vt 0.043602 0.114937
vt 0.043602 0.065803
vt 0.035413 0.114937
vt 0.035413 0.065803
vt 0.109115 0.064820
vt 0.120907 0.061661
vt 0.129539 0.053028
vt 0.132699 0.041236
vt 0.129539 0.029444
vt 0.120907 0.020811
vt 0.109115 0.017652
vt 0.097322 0.020811
vt 0.088690 0.029444
vt 0.085530 0.041236
vt 0.088690 0.053028
vt 0.097322 0.061661
vt 0.117304 0.065803
vt 0.117304 0.114937
vt 0.043602 0.065803
vt 0.043602 0.114937
vt 0.035413 0.114937
vt 0.035413 0.065803
vt 0.125493 0.065803
vt 0.125493 0.114937
vt 0.133682 0.065803
vt 0.133682 0.114937
vt 0.501250 0.024375
vt 0.501250 0.024375
vt 0.501250 0.024375
vt 0.501250 0.024375
vn -1.0000 0.0000 0.0000
vn 0.0000 -1.0000 0.0000
vn 1.0000 0.0000 0.0000
vn 0.0000 1.0000 0.0000
vn 0.0000 0.0000 -1.0000
vn 0.0000 0.0000 1.0000
vn 0.9659 -0.2588 0.0000
vn 0.2588 0.9659 0.0000
vn -0.9659 0.2588 0.0000
vn 0.7071 0.7071 0.0000
vn 0.2588 -0.9659 0.0000
vn -0.9659 -0.2588 0.0000
vn 0.9659 0.2588 0.0000
vn -0.2588 -0.9659 0.0000
vn -0.7071 -0.7071 0.0000
vn 0.7071 -0.7071 0.0000
vn -0.2588 0.9659 0.0000
vn -0.7071 0.7071 0.0000
usemtl Material.004
s off
f 196/1/1 194/2/1 9/3/1 10/4/1
f 3/5/2 4/6/2 8/7/2 7/8/2
f 13/9/2 10/4/2 18/10/2 20/11/2
f 2/12/1 1/13/1 4/6/1 3/5/1
f 7/8/3 8/7/3 5/14/3 6/15/3
f 1/13/4 2/12/4 6/15/4 5/14/4
f 195/16/3 193/17/3 12/18/3 11/19/3
f 32/20/3 6/15/3 38/21/3 40/22/3
f 193/17/2 196/1/2 10/4/2 12/18/2
f 194/2/4 195/16/4 11/19/4 9/3/4
f 13/9/5 16/23/5 15/24/5 14/25/5
f 9/3/6 11/19/6 21/26/6 22/27/6
f 11/19/3 12/18/3 14/25/3 15/24/3
f 14/25/3 12/18/3 26/28/3 28/29/3
f 18/10/1 17/30/1 19/31/1 20/11/1
f 16/23/5 13/9/5 20/11/5 19/31/5
f 9/3/4 16/23/4 19/31/4 17/30/4
f 10/4/6 9/3/6 17/30/6 18/10/6
f 22/27/4 21/26/4 23/32/4 24/33/4
f 15/24/5 16/23/5 24/33/5 23/32/5
f 11/19/3 15/24/3 23/32/3 21/26/3
f 16/23/1 9/3/1 22/27/1 24/33/1
f 26/28/2 25/34/2 27/35/2 28/29/2
f 10/4/1 13/9/1 27/35/1 25/34/1
f 12/18/6 10/4/6 25/34/6 26/28/6
f 13/9/5 14/25/5 28/29/5 27/35/5
f 30/36/6 29/37/6 31/38/6 32/20/6
f 3/5/2 29/37/2 35/39/2 33/40/2
f 3/5/5 7/8/5 41/41/5 42/42/5
f 7/8/3 6/15/3 32/20/3 31/38/3
f 34/43/1 33/40/1 35/39/1 36/44/1
f 2/12/5 3/5/5 33/40/5 34/43/5
f 30/36/4 2/12/4 34/43/4 36/44/4
f 29/37/6 30/36/6 36/44/6 35/39/6
f 38/21/4 37/45/4 39/46/4 40/22/4
f 30/36/6 32/20/6 40/22/6 39/46/6
f 6/15/5 2/12/5 37/45/5 38/21/5
f 2/12/1 30/36/1 39/46/1 37/45/1
f 42/42/2 41/41/2 43/47/2 44/48/2
f 29/37/1 3/5/1 42/42/1 44/48/1
f 31/38/6 29/37/6 44/48/6 43/47/6
f 7/8/3 31/38/3 43/47/3 41/41/3
f 99/49/7 100/50/7 102/51/7 101/52/7
f 72/53/6 45/54/6 92/55/6 90/56/6 88/57/6 86/58/6 84/59/6 82/60/6 80/61/6 78/62/6 76/63/6 74/64/6
f 47/65/8 48/66/8 50/67/8 49/68/8
f 94/69/5 95/70/5 97/71/5 99/72/5 101/73/5 103/74/5 105/75/5 107/76/5 109/77/5 111/78/5 113/79/5 115/80/5
f 87/81/9 88/82/9 90/83/9 89/84/9
f 49/68/10 50/67/10 52/85/10 51/86/10
f 103/87/11 104/88/11 106/89/11 105/90/11
f 85/91/12 86/92/12 88/82/12 87/81/12
f 51/86/13 52/85/13 54/93/13 53/94/13
f 105/90/14 106/89/14 108/95/14 107/96/14
f 83/97/15 84/98/15 86/92/15 85/91/15
f 53/94/7 54/93/7 56/99/7 55/100/7
f 107/96/15 108/95/15 110/101/15 109/102/15
f 81/103/14 82/104/14 84/98/14 83/97/14
f 55/100/16 56/99/16 58/105/16 57/106/16
f 109/102/12 110/101/12 112/107/12 111/108/12
f 79/109/11 80/110/11 82/104/11 81/103/11
f 57/106/11 58/105/11 60/111/11 59/112/11
f 111/108/9 112/107/9 114/113/9 113/114/9
f 77/115/16 78/116/16 80/110/16 79/109/16
f 59/112/14 60/111/14 62/117/14 61/118/14
f 96/119/6 93/120/6 116/121/6 114/122/6 112/123/6 110/124/6 108/125/6 106/126/6 104/127/6 102/128/6 100/129/6 98/130/6
f 75/131/7 76/132/7 78/116/7 77/115/7
f 61/118/15 62/117/15 64/133/15 63/134/15
f 46/135/5 71/136/5 73/137/5 75/138/5 77/139/5 79/140/5 81/141/5 83/142/5 85/143/5 87/144/5 89/145/5 91/146/5
f 73/147/13 74/148/13 76/132/13 75/131/13
f 63/134/12 64/133/12 66/149/12 65/150/12
f 91/151/17 92/152/17 45/153/17 46/154/17
f 71/155/10 72/156/10 74/148/10 73/147/10
f 65/150/9 66/149/9 68/157/9 67/158/9
f 50/159/6 48/160/6 70/161/6 68/162/6 66/163/6 64/164/6 62/165/6 60/166/6 58/167/6 56/168/6 54/169/6 52/170/6
f 46/171/8 45/172/8 72/156/8 71/155/8
f 67/158/18 68/157/18 70/173/18 69/174/18
f 101/52/16 102/51/16 104/88/16 103/87/16
f 89/84/18 90/83/18 92/152/18 91/151/18
f 69/174/17 70/173/17 48/175/17 47/176/17
f 47/177/5 49/178/5 51/179/5 53/180/5 55/181/5 57/182/5 59/183/5 61/184/5 63/185/5 65/186/5 67/187/5 69/188/5
f 97/189/13 98/190/13 100/50/13 99/49/13
f 115/191/17 116/192/17 93/193/17 94/194/17
f 95/195/10 96/196/10 98/190/10 97/189/10
f 94/197/8 93/198/8 96/196/8 95/195/8
f 113/114/18 114/113/18 116/192/18 115/191/18
f 171/199/7 172/200/7 174/201/7 173/202/7
f 144/203/6 117/204/6 164/205/6 162/206/6 160/207/6 158/208/6 156/209/6 154/210/6 152/211/6 150/212/6 148/213/6 146/214/6
f 119/215/8 120/216/8 122/217/8 121/218/8
f 166/219/5 167/220/5 169/221/5 171/222/5 173/223/5 175/224/5 177/225/5 179/226/5 181/227/5 183/228/5 185/229/5 187/230/5
f 159/231/9 160/232/9 162/233/9 161/234/9
f 121/218/10 122/217/10 124/235/10 123/236/10
f 175/237/11 176/238/11 178/239/11 177/240/11
f 157/241/12 158/242/12 160/232/12 159/231/12
f 123/236/13 124/235/13 126/243/13 125/244/13
f 177/240/14 178/239/14 180/245/14 179/246/14
f 155/247/15 156/248/15 158/242/15 157/241/15
f 125/244/7 126/243/7 128/249/7 127/250/7
f 179/246/15 180/245/15 182/251/15 181/252/15
f 153/253/14 154/254/14 156/248/14 155/247/14
f 127/250/16 128/249/16 130/255/16 129/256/16
f 181/252/12 182/251/12 184/257/12 183/258/12
f 151/259/11 152/260/11 154/254/11 153/253/11
f 129/256/11 130/255/11 132/261/11 131/262/11
f 183/258/9 184/257/9 186/263/9 185/264/9
f 149/265/16 150/266/16 152/260/16 151/259/16
f 131/262/14 132/261/14 134/267/14 133/268/14
f 168/269/6 165/270/6 188/271/6 186/272/6 184/273/6 182/274/6 180/275/6 178/276/6 176/277/6 174/278/6 172/279/6 170/280/6
f 147/281/7 148/282/7 150/266/7 149/265/7
f 133/268/15 134/267/15 136/283/15 135/284/15
f 118/285/5 143/286/5 145/287/5 147/288/5 149/289/5 151/290/5 153/291/5 155/292/5 157/293/5 159/294/5 161/295/5 163/296/5
f 145/297/13 146/298/13 148/282/13 147/281/13
f 135/284/12 136/283/12 138/299/12 137/300/12
f 163/301/17 164/302/17 117/303/17 118/304/17
f 143/305/10 144/306/10 146/298/10 145/297/10
f 137/300/9 138/299/9 140/307/9 139/308/9
f 122/309/6 120/310/6 142/311/6 140/312/6 138/313/6 136/314/6 134/315/6 132/316/6 130/317/6 128/318/6 126/319/6 124/320/6
f 118/321/8 117/322/8 144/306/8 143/305/8
f 139/308/18 140/307/18 142/323/18 141/324/18
f 173/202/16 174/201/16 176/238/16 175/237/16
f 161/234/18 162/233/18 164/302/18 163/301/18
f 141/324/17 142/323/17 120/325/17 119/326/17
f 119/327/5 121/328/5 123/329/5 125/330/5 127/331/5 129/332/5 131/333/5 133/334/5 135/335/5 137/336/5 139/337/5 141/338/5
f 169/339/13 170/340/13 172/200/13 171/199/13
f 187/341/17 188/342/17 165/343/17 166/344/17
f 167/345/10 168/346/10 170/340/10 169/339/10
f 166/347/8 165/348/8 168/346/8 167/345/8
f 185/264/18 186/263/18 188/342/18 187/341/18
f 1/13/4 5/14/4 190/349/4 191/350/4
f 8/7/2 4/6/2 192/351/2 189/352/2
f 5/14/3 8/7/3 189/352/3 190/349/3
f 4/6/1 1/13/1 191/350/1 192/351/1
f 191/350/4 190/349/4 195/16/4 194/2/4
f 189/352/2 192/351/2 196/1/2 193/17/2
f 192/351/1 191/350/1 194/2/1 196/1/1
f 195/16/3 190/349/3 189/352/3 193/17/3
