# Blender v2.82 (sub 7) OBJ File: '3Dprinter.blend'
# www.blender.org
mtllib extruder.mtl
o Plane.003
v 0.863548 12.301659 -2.087963
v 0.863548 12.301659 -1.502491
v 0.863548 11.677674 -1.502491
v 0.863548 11.677674 -2.087963
v 1.389330 12.301659 -2.087963
v 1.389330 12.301659 -1.502491
v 1.389330 11.677674 -1.502491
v 1.389330 11.677674 -2.087963
v 0.863548 11.677674 -1.502491
v 0.863548 12.301659 -1.502491
v 1.389330 11.677674 -1.502491
v 1.389330 12.301659 -1.502491
v 0.863548 13.301659 -2.087963
v 0.863548 13.301659 -1.502491
v 1.389330 13.301659 -2.087963
v 1.389330 13.301659 -1.502491
v 0.863548 11.427674 -1.502491
v 0.863548 11.427674 -2.087963
v 1.389330 11.427674 -1.502491
v 1.389330 11.427674 -2.087963
v 1.389330 10.927675 -2.087963
v 1.389330 10.927675 -1.502491
v 0.863548 10.927675 -2.087963
v 0.863548 10.927675 -1.502491
v 0.363503 12.793237 -2.305305
v 0.863504 12.793237 -2.305305
v 0.363503 12.543238 -2.238317
v 0.863504 12.543238 -2.238317
v 0.363503 12.360225 -2.055305
v 0.863504 12.360225 -2.055305
v 0.363503 12.293236 -1.805305
v 0.863504 12.293236 -1.805305
v 0.363503 12.360225 -1.555305
v 0.863504 12.360225 -1.555305
v 0.363503 12.543238 -1.372292
v 0.863504 12.543238 -1.372292
v 0.363503 12.793237 -1.305305
v 0.863504 12.793237 -1.305305
v 0.363503 13.043237 -1.372292
v 0.863504 13.043237 -1.372292
v 0.363503 13.226250 -1.555305
v 0.863504 13.226250 -1.555305
v 0.363503 13.293238 -1.805305
v 0.863504 13.293238 -1.805305
v 0.363503 13.226250 -2.055305
v 0.863504 13.226250 -2.055305
v 0.363503 13.043237 -2.238317
v 0.863504 13.043237 -2.238317
v 0.363503 11.204391 -1.305305
v 0.863504 11.204391 -1.305305
v 0.363503 10.954391 -1.238317
v 0.863504 10.954391 -1.238317
v 0.363503 10.771379 -1.055305
v 0.863504 10.771379 -1.055305
v 0.363503 10.704390 -0.805305
v 0.863504 10.704390 -0.805305
v 0.363503 10.771379 -0.555305
v 0.863504 10.771379 -0.555305
v 0.363503 10.954391 -0.372292
v 0.863504 10.954391 -0.372292
v 0.363503 11.204391 -0.305305
v 0.863504 11.204391 -0.305305
v 0.363503 11.454391 -0.372292
v 0.863504 11.454391 -0.372292
v 0.363503 11.637403 -0.555305
v 0.863504 11.637403 -0.555305
v 0.363503 11.704391 -0.805305
v 0.863504 11.704391 -0.805305
v 0.363503 11.637403 -1.055305
v 0.863504 11.637403 -1.055305
v 0.363503 11.454391 -1.238317
v 0.863504 11.454391 -1.238317
v 0.863548 11.427674 -3.087963
v 1.389330 11.427674 -3.087963
v 0.863548 10.927675 -3.087963
v 1.389330 10.927675 -3.087963
v 1.389330 11.427674 -0.502491
v 0.863548 11.427674 -0.502491
v 1.389330 10.927675 -0.502491
v 0.863548 10.927675 -0.502491
v 0.363503 11.204391 -3.305305
v 0.863504 11.204391 -3.305305
v 0.363503 10.954391 -3.238317
v 0.863504 10.954391 -3.238317
v 0.363503 10.771379 -3.055305
v 0.863504 10.771379 -3.055305
v 0.363503 10.704390 -2.805305
v 0.863504 10.704390 -2.805305
v 0.363503 10.771379 -2.555305
v 0.863504 10.771379 -2.555305
v 0.363503 10.954391 -2.372292
v 0.863504 10.954391 -2.372292
v 0.363503 11.204391 -2.305305
v 0.863504 11.204391 -2.305305
v 0.363503 11.454391 -2.372292
v 0.863504 11.454391 -2.372292
v 0.363503 11.637403 -2.555305
v 0.863504 11.637403 -2.555305
v 0.363503 11.704391 -2.805305
v 0.863504 11.704391 -2.805305
v 0.363503 11.637403 -3.055305
v 0.863504 11.637403 -3.055305
v 0.363503 11.454391 -3.238317
v 0.863504 11.454391 -3.238317
v 2.131427 10.970572 -1.627310
v 2.099905 10.970572 -1.624205
v 2.889330 13.301659 -2.087963
v 2.889330 13.301659 -1.502491
v 2.889330 10.927675 -1.502491
v 2.889330 10.927675 -2.087963
v 1.389330 10.927675 -1.002491
v 2.889330 10.927675 -1.002491
v 1.389330 11.677674 -1.002491
v 1.389330 12.301659 -1.002491
v 2.889330 12.301659 -1.002491
v 1.389330 13.301659 -1.002491
v 2.889330 11.677674 -1.002491
v 1.389330 11.427674 -1.002491
v 2.889330 13.301659 -1.002491
v 2.889330 11.427674 -1.002491
v 1.389330 11.677674 -2.587963
v 1.389330 12.301659 -2.587963
v 1.389330 13.301659 -2.587963
v 1.389330 11.427674 -2.587963
v 1.389330 10.927675 -2.587963
v 2.889330 11.677674 -2.587963
v 2.889330 12.301659 -2.587963
v 2.889330 13.301659 -2.587963
v 2.889330 11.427674 -2.587963
v 2.889330 10.927675 -2.587963
v 2.161737 10.970572 -1.636505
v 2.189672 10.970572 -1.651436
v 2.214156 10.970572 -1.671530
v 2.234250 10.970572 -1.696015
v 2.249182 10.970572 -1.723949
v 2.258376 10.970572 -1.754260
v 2.261481 10.970572 -1.785782
v 2.258376 10.970572 -1.817303
v 2.249182 10.970572 -1.847614
v 2.234250 10.970572 -1.875548
v 2.214156 10.970572 -1.900033
v 2.189672 10.970572 -1.920127
v 2.161737 10.970572 -1.935059
v 2.131426 10.970572 -1.944253
v 2.099905 10.970572 -1.947358
v 2.068383 10.970572 -1.944253
v 2.038072 10.970572 -1.935058
v 2.010138 10.970572 -1.920127
v 1.985653 10.970572 -1.900033
v 1.965559 10.970572 -1.875548
v 1.950628 10.970572 -1.847614
v 2.099905 10.647420 -1.785782
v 1.941433 10.970572 -1.817303
v 1.938328 10.970572 -1.785781
v 1.941433 10.970572 -1.754259
v 1.950628 10.970572 -1.723949
v 1.965559 10.970572 -1.696014
v 1.985653 10.970572 -1.671530
v 2.010138 10.970572 -1.651436
v 2.038072 10.970572 -1.636505
v 2.068383 10.970572 -1.627310
vt 0.296822 0.485388
vt 0.250000 0.250000
vt 0.341844 0.471731
vt 0.501250 0.024375
vt 0.501250 0.024375
vt 0.501250 0.024375
vt 0.501250 0.024375
vt 0.501250 0.024375
vt 0.501250 0.024375
vt 0.501250 0.024375
vt 0.501250 0.024375
vt 0.383337 0.449553
vt 0.501250 0.024375
vt 0.501250 0.024375
vt 0.501250 0.024375
vt 0.501250 0.024375
vt 0.501250 0.024375
vt 0.501250 0.024375
vt 0.501250 0.024375
vt 0.501250 0.024375
vt 0.501250 0.024375
vt 0.501250 0.024375
vt 0.501250 0.024375
vt 0.501250 0.024375
vt 0.501250 0.024375
vt 0.501250 0.024375
vt 0.501250 0.024375
vt 0.501250 0.024375
vt 0.501250 0.024375
vt 0.485388 0.203178
vt 0.471731 0.158156
vt 0.501250 0.024375
vt 0.501250 0.024375
vt 0.501250 0.024375
vt 0.501250 0.024375
vt 0.501250 0.024375
vt 0.060214 0.069778
vt 0.060214 0.031492
vt 0.066595 0.031492
vt 0.066595 0.069778
vt 0.072976 0.031492
vt 0.072976 0.069778
vt 0.079357 0.031492
vt 0.079357 0.069778
vt 0.085738 0.031492
vt 0.085738 0.069778
vt 0.092118 0.031492
vt 0.092118 0.069778
vt 0.098499 0.031492
vt 0.098499 0.069778
vt 0.104880 0.031492
vt 0.104880 0.069778
vt 0.111261 0.031492
vt 0.111261 0.069778
vt 0.117642 0.031492
vt 0.117642 0.069778
vt 0.124023 0.031492
vt 0.124023 0.069778
vt 0.108453 0.073005
vt 0.117642 0.070543
vt 0.126830 0.073005
vt 0.133557 0.079732
vt 0.136019 0.088920
vt 0.133557 0.098109
vt 0.126830 0.104835
vt 0.117642 0.107297
vt 0.108453 0.104835
vt 0.101727 0.098109
vt 0.099265 0.088920
vt 0.101727 0.079732
vt 0.130404 0.031492
vt 0.130404 0.069778
vt 0.136785 0.031492
vt 0.136785 0.069778
vt 0.079357 0.070543
vt 0.070168 0.073005
vt 0.063442 0.079732
vt 0.060980 0.088920
vt 0.063442 0.098109
vt 0.070168 0.104835
vt 0.079357 0.107297
vt 0.088545 0.104835
vt 0.095272 0.098109
vt 0.097734 0.088920
vt 0.095272 0.079732
vt 0.088545 0.073005
vt 0.060214 0.069778
vt 0.060214 0.031492
vt 0.066595 0.031492
vt 0.066595 0.069778
vt 0.072976 0.031492
vt 0.072976 0.069778
vt 0.079357 0.031492
vt 0.079357 0.069778
vt 0.085738 0.031492
vt 0.085738 0.069778
vt 0.092118 0.031492
vt 0.092118 0.069778
vt 0.098499 0.031492
vt 0.098499 0.069778
vt 0.104880 0.031492
vt 0.104880 0.069778
vt 0.111261 0.031492
vt 0.111261 0.069778
vt 0.117642 0.031492
vt 0.117642 0.069778
vt 0.124023 0.031492
vt 0.124023 0.069778
vt 0.108453 0.073005
vt 0.117642 0.070543
vt 0.126830 0.073005
vt 0.133557 0.079732
vt 0.136019 0.088920
vt 0.133557 0.098109
vt 0.126830 0.104835
vt 0.117642 0.107297
vt 0.108453 0.104835
vt 0.101727 0.098109
vt 0.099265 0.088920
vt 0.101727 0.079732
vt 0.130404 0.031492
vt 0.130404 0.069778
vt 0.136785 0.031492
vt 0.136785 0.069778
vt 0.079357 0.070543
vt 0.070168 0.073005
vt 0.063442 0.079732
vt 0.060980 0.088920
vt 0.063442 0.098109
vt 0.070168 0.104835
vt 0.079357 0.107297
vt 0.088545 0.104835
vt 0.095272 0.098109
vt 0.097734 0.088920
vt 0.095272 0.079732
vt 0.088545 0.073005
vt 0.250000 0.490000
vt 0.501250 0.024375
vt 0.060214 0.069778
vt 0.060214 0.031492
vt 0.066595 0.031492
vt 0.066595 0.069778
vt 0.072976 0.031492
vt 0.072976 0.069778
vt 0.079357 0.031492
vt 0.079357 0.069778
vt 0.085738 0.031492
vt 0.085738 0.069778
vt 0.092118 0.031492
vt 0.092118 0.069778
vt 0.098499 0.031492
vt 0.098499 0.069778
vt 0.104880 0.031492
vt 0.104880 0.069778
vt 0.111261 0.031492
vt 0.111261 0.069778
vt 0.117642 0.031492
vt 0.117642 0.069778
vt 0.124023 0.031492
vt 0.124023 0.069778
vt 0.108453 0.073005
vt 0.117642 0.070543
vt 0.126830 0.073005
vt 0.133557 0.079732
vt 0.136019 0.088920
vt 0.133557 0.098109
vt 0.126830 0.104835
vt 0.117642 0.107297
vt 0.108453 0.104835
vt 0.101727 0.098109
vt 0.099265 0.088920
vt 0.101727 0.079732
vt 0.130404 0.031492
vt 0.130404 0.069778
vt 0.136785 0.031492
vt 0.136785 0.069778
vt 0.079357 0.070543
vt 0.070168 0.073005
vt 0.063442 0.079732
vt 0.060980 0.088920
vt 0.063442 0.098109
vt 0.070168 0.104835
vt 0.079357 0.107297
vt 0.088545 0.104835
vt 0.095272 0.098109
vt 0.097734 0.088920
vt 0.095272 0.079732
vt 0.088545 0.073005
vt 0.449553 0.116663
vt 0.490000 0.250000
vt 0.485388 0.296822
vt 0.968484 0.883069
vt 0.968484 0.890692
vt 0.945613 0.890692
vt 0.945613 0.883069
vt 0.945613 0.879257
vt 0.945613 0.869743
vt 0.945613 0.854496
vt 0.968484 0.854496
vt 0.968484 0.869743
vt 0.968484 0.879257
vt 0.501250 0.024375
vt 0.501250 0.024375
vt 0.449553 0.383337
vt 0.471731 0.341844
vt 0.419706 0.419706
vt 0.976107 0.869743
vt 0.976107 0.879257
vt 0.976107 0.883069
vt 0.976107 0.854496
vt 0.890945 0.869743
vt 0.890945 0.854496
vt 0.898568 0.854496
vt 0.898568 0.869743
vt 0.898568 0.879257
vt 0.898568 0.883069
vt 0.890945 0.883069
vt 0.890945 0.879257
vt 0.100003 0.150425
vt 0.071113 0.150425
vt 0.071113 0.124480
vt 0.046440 0.124480
vt 0.046440 0.050463
vt 0.071113 0.050463
vt 0.100003 0.050463
vt 0.124675 0.050463
vt 0.124675 0.124480
vt 0.100003 0.124480
vt 0.501250 0.024375
vt 0.501250 0.024375
vt 0.501250 0.024375
vt 0.921439 0.854496
vt 0.921439 0.869743
vt 0.921439 0.879257
vt 0.921439 0.883069
vt 0.921439 0.890692
vt 0.898569 0.890692
vt 0.937990 0.854496
vt 0.937990 0.890692
vt 0.929063 0.890692
vt 0.929063 0.854496
vt 0.419706 0.080294
vt 0.383337 0.050447
vt 0.341844 0.028269
vt 0.296822 0.014612
vt 0.250000 0.010000
vt 0.203178 0.014612
vt 0.158156 0.028269
vt 0.116663 0.050447
vt 0.080294 0.080294
vt 0.050447 0.116663
vt 0.028269 0.158156
vt 0.014612 0.203179
vt 0.010000 0.250000
vt 0.014612 0.296822
vt 0.028269 0.341844
vt 0.050447 0.383337
vt 0.080295 0.419706
vt 0.116663 0.449553
vt 0.158156 0.471731
vt 0.841844 0.471731
vt 0.883337 0.449553
vt 0.919706 0.419706
vt 0.949553 0.383337
vt 0.971731 0.341844
vt 0.985389 0.296822
vt 0.990000 0.250000
vt 0.985389 0.203178
vt 0.971731 0.158156
vt 0.949553 0.116663
vt 0.919706 0.080294
vt 0.883337 0.050447
vt 0.841844 0.028269
vt 0.796822 0.014612
vt 0.750000 0.010000
vt 0.703178 0.014612
vt 0.658156 0.028269
vt 0.616663 0.050447
vt 0.580294 0.080294
vt 0.550447 0.116663
vt 0.528269 0.158156
vt 0.514611 0.203179
vt 0.510000 0.250000
vt 0.514612 0.296822
vt 0.528269 0.341844
vt 0.550447 0.383337
vt 0.580295 0.419706
vt 0.616663 0.449553
vt 0.658156 0.471731
vt 0.703179 0.485388
vt 0.750000 0.490000
vt 0.796822 0.485388
vt 0.203179 0.485388
vt 0.900576 0.949398
vt 0.886923 0.949398
vt 0.875263 0.949398
vt 0.875263 0.914419
vt 0.886923 0.914419
vt 0.900576 0.914419
vt 0.912236 0.914419
vt 0.912236 0.949398
vn 0.2599 -0.4455 0.8567
vn -1.0000 0.0000 0.0000
vn 0.0000 0.0000 1.0000
vn 0.4220 -0.4455 0.7896
vn 0.8567 -0.4455 -0.2599
vn 1.0000 0.0000 0.0000
vn 0.0000 -1.0000 0.0000
vn 0.0000 -0.2588 -0.9659
vn 0.0000 -0.7071 -0.7071
vn 0.0000 -0.9659 -0.2588
vn 0.0000 -0.9659 0.2588
vn 0.0000 -0.7071 0.7071
vn 0.0000 -0.2588 0.9659
vn 0.0000 0.2588 0.9659
vn 0.0000 0.7071 0.7071
vn 0.0000 0.9659 0.2588
vn 0.0000 0.9659 -0.2588
vn 0.0000 0.7071 -0.7071
vn 0.0000 0.2588 -0.9659
vn 0.0000 0.0000 -1.0000
vn 0.0000 1.0000 0.0000
vn 0.0878 -0.4455 0.8910
vn 0.7896 -0.4455 -0.4220
vn 0.8910 -0.4455 -0.0878
vn 0.8910 -0.4455 0.0878
vn 0.7896 -0.4455 0.4220
vn 0.5680 -0.4455 0.6921
vn 0.8567 -0.4455 0.2599
vn 0.6921 -0.4455 0.5680
vn 0.6921 -0.4455 -0.5680
vn 0.5680 -0.4455 -0.6921
vn 0.4220 -0.4455 -0.7896
vn 0.2599 -0.4455 -0.8567
vn 0.0877 -0.4455 -0.8910
vn -0.0877 -0.4455 -0.8910
vn -0.2599 -0.4455 -0.8567
vn -0.4220 -0.4455 -0.7896
vn -0.5680 -0.4455 -0.6921
vn -0.6921 -0.4455 -0.5680
vn -0.7896 -0.4455 -0.4220
vn -0.8567 -0.4455 -0.2599
vn -0.8910 -0.4455 -0.0878
vn -0.8910 -0.4455 0.0878
vn -0.8567 -0.4455 0.2599
vn -0.7896 -0.4455 0.4220
vn -0.6921 -0.4455 0.5680
vn -0.5680 -0.4455 0.6921
vn -0.4220 -0.4455 0.7896
vn -0.2599 -0.4455 0.8567
vn -0.0877 -0.4455 0.8910
usemtl Material.005
s off
f 105/1/1 152/2/1 131/3/1
f 21/4/2 20/5/2 124/6/2 125/7/2
f 2/8/3 6/9/3 16/10/3 14/11/3
f 131/3/4 152/2/4 132/12/4
f 3/13/3 7/14/3 11/15/3 9/16/3
f 10/17/3 9/16/3 11/15/3 12/18/3
f 7/14/3 6/9/3 12/18/3 11/15/3
f 2/8/3 3/13/3 9/16/3 10/17/3
f 6/9/3 2/8/3 10/17/3 12/18/3
f 1/19/2 2/8/2 14/11/2 13/20/2
f 1/19/2 4/21/2 18/22/2 73/23/2 75/24/2 23/25/2 24/26/2 80/27/2 78/28/2 17/29/2 3/13/2 2/8/2
f 138/30/5 152/2/5 139/31/5
f 7/14/3 3/13/3 17/29/3 19/32/3
f 20/5/6 21/4/6 76/33/6 74/34/6
f 21/4/7 22/35/7 79/36/7 80/27/7 24/26/7 23/25/7 75/24/7 76/33/7
f 25/37/8 26/38/8 28/39/8 27/40/8
f 27/40/9 28/39/9 30/41/9 29/42/9
f 29/42/10 30/41/10 32/43/10 31/44/10
f 31/44/11 32/43/11 34/45/11 33/46/11
f 33/46/12 34/45/12 36/47/12 35/48/12
f 35/48/13 36/47/13 38/49/13 37/50/13
f 37/50/14 38/49/14 40/51/14 39/52/14
f 39/52/15 40/51/15 42/53/15 41/54/15
f 41/54/16 42/53/16 44/55/16 43/56/16
f 43/56/17 44/55/17 46/57/17 45/58/17
f 28/59/6 26/60/6 48/61/6 46/62/6 44/63/6 42/64/6 40/65/6 38/66/6 36/67/6 34/68/6 32/69/6 30/70/6
f 45/58/18 46/57/18 48/71/18 47/72/18
f 47/72/19 48/71/19 26/73/19 25/74/19
f 25/75/2 27/76/2 29/77/2 31/78/2 33/79/2 35/80/2 37/81/2 39/82/2 41/83/2 43/84/2 45/85/2 47/86/2
f 49/87/8 50/88/8 52/89/8 51/90/8
f 51/90/9 52/89/9 54/91/9 53/92/9
f 53/92/10 54/91/10 56/93/10 55/94/10
f 55/94/11 56/93/11 58/95/11 57/96/11
f 57/96/12 58/95/12 60/97/12 59/98/12
f 59/98/13 60/97/13 62/99/13 61/100/13
f 61/100/14 62/99/14 64/101/14 63/102/14
f 63/102/15 64/101/15 66/103/15 65/104/15
f 65/104/16 66/103/16 68/105/16 67/106/16
f 67/106/17 68/105/17 70/107/17 69/108/17
f 52/109/6 50/110/6 72/111/6 70/112/6 68/113/6 66/114/6 64/115/6 62/116/6 60/117/6 58/118/6 56/119/6 54/120/6
f 69/108/18 70/107/18 72/121/18 71/122/18
f 71/122/19 72/121/19 50/123/19 49/124/19
f 49/125/2 51/126/2 53/127/2 55/128/2 57/129/2 59/130/2 61/131/2 63/132/2 65/133/2 67/134/2 69/135/2 71/136/2
f 73/23/20 74/34/20 76/33/20 75/24/20
f 18/22/21 20/5/21 74/34/21 73/23/21
f 106/137/22 152/2/22 105/1/22
f 77/138/3 78/28/3 80/27/3 79/36/3
f 22/35/6 19/32/6 77/138/6 79/36/6
f 19/32/21 17/29/21 78/28/21 77/138/21
f 81/139/8 82/140/8 84/141/8 83/142/8
f 83/142/9 84/141/9 86/143/9 85/144/9
f 85/144/10 86/143/10 88/145/10 87/146/10
f 87/146/11 88/145/11 90/147/11 89/148/11
f 89/148/12 90/147/12 92/149/12 91/150/12
f 91/150/13 92/149/13 94/151/13 93/152/13
f 93/152/14 94/151/14 96/153/14 95/154/14
f 95/154/15 96/153/15 98/155/15 97/156/15
f 97/156/16 98/155/16 100/157/16 99/158/16
f 99/158/17 100/157/17 102/159/17 101/160/17
f 84/161/6 82/162/6 104/163/6 102/164/6 100/165/6 98/166/6 96/167/6 94/168/6 92/169/6 90/170/6 88/171/6 86/172/6
f 101/160/18 102/159/18 104/173/18 103/174/18
f 103/174/19 104/173/19 82/175/19 81/176/19
f 81/177/2 83/178/2 85/179/2 87/180/2 89/181/2 91/182/2 93/183/2 95/184/2 97/185/2 99/186/2 101/187/2 103/188/2
f 139/31/23 152/2/23 140/189/23
f 137/190/24 152/2/24 138/30/24
f 136/191/25 152/2/25 137/190/25
f 118/192/3 111/193/3 112/194/3 120/195/3 117/196/3 115/197/3 119/198/3 116/199/3 114/200/3 113/201/3
f 19/32/2 22/35/2 111/202/2 118/203/2
f 134/204/26 152/2/26 135/205/26
f 132/12/27 152/2/27 133/206/27
f 135/205/28 152/2/28 136/191/28
f 6/207/2 7/208/2 19/209/2 118/192/2 113/201/2 114/200/2 116/199/2 16/210/2
f 5/211/2 15/212/2 123/213/2 122/214/2 121/215/2 124/216/2 20/217/2 8/218/2
f 13/219/21 14/220/21 16/221/21 116/222/21 119/223/21 108/224/21 107/225/21 128/226/21 123/227/21 15/228/21
f 133/206/29 152/2/29 134/204/29
f 8/229/20 20/5/20 18/22/20 4/21/20 1/19/20 13/20/20 15/230/20 5/231/20
f 122/214/20 123/213/20 128/232/20 127/233/20 126/234/20 129/235/20 130/236/20 125/237/20 124/216/20 121/215/20
f 108/238/6 119/198/6 115/197/6 117/196/6 120/195/6 112/194/6 109/239/6 110/240/6 130/236/6 129/235/6 126/234/6 127/233/6 128/232/6 107/241/6
f 140/189/30 152/2/30 141/242/30
f 141/242/31 152/2/31 142/243/31
f 142/243/32 152/2/32 143/244/32
f 143/244/33 152/2/33 144/245/33
f 144/245/34 152/2/34 145/246/34
f 145/246/35 152/2/35 146/247/35
f 146/247/36 152/2/36 147/248/36
f 147/248/37 152/2/37 148/249/37
f 148/249/38 152/2/38 149/250/38
f 149/250/39 152/2/39 150/251/39
f 150/251/40 152/2/40 151/252/40
f 151/252/41 152/2/41 153/253/41
f 153/253/42 152/2/42 154/254/42
f 154/254/43 152/2/43 155/255/43
f 155/255/44 152/2/44 156/256/44
f 156/256/45 152/2/45 157/257/45
f 157/257/46 152/2/46 158/258/46
f 158/258/47 152/2/47 159/259/47
f 159/259/48 152/2/48 160/260/48
f 131/261/21 132/262/21 133/263/21 134/264/21 135/265/21 136/266/21 137/267/21 138/268/21 139/269/21 140/270/21 141/271/21 142/272/21 143/273/21 144/274/21 145/275/21 146/276/21 147/277/21 148/278/21 149/279/21 150/280/21 151/281/21 153/282/21 154/283/21 155/284/21 156/285/21 157/286/21 158/287/21 159/288/21 160/289/21 161/290/21 106/291/21 105/292/21
f 160/260/49 152/2/49 161/293/49
f 161/293/50 152/2/50 106/137/50
f 22/294/7 21/295/7 125/296/7 130/297/7 110/298/7 109/299/7 112/300/7 111/301/7
